<svg id="fond" xmlns="http://www.w3.org/2000/svg" width="300" height="600" viewBox="0 0 300 600"><g id="fonds"><g id="fond5"><path d="M311.43,330.3c-7.91-8.74-17-9.52-25.07-2.15-2.6,2.37-5.14,5.57-7.87,6.34-4,1.14-7.94-3.06-11.92-5-6.41-3.13-13-.34-19.46,1.85-71.51,24.27-144.06-24.59-215.88-8.27-13.46,3.05-26.87,8.4-40.38,8.87-2,.06-4.06-.07-5.69-3-3.59-6.49-2.45-22.85,1-29.72s8.15-7,12.46-6.86c98.24,3.29,195.43,11.91,294.71,9.88,13.14-.27,26.44,1,39.1,10.46,3.85,2.9,8,7.67,9.54,17.73s-2.4,24.23-5.93,19.14Z" style="fill:#ffb400"/></g><g id="fond4"><path d="M311.43,330.3c-3.23-3.58-6.66-5.8-10.14-6.69l-7.26.06a19.17,19.17,0,0,0-7.67,4.48c-2.6,2.37-5.14,5.57-7.87,6.34-4,1.14-7.94-3.06-11.92-5-6.41-3.13-13-.34-19.46,1.85-71.51,24.27-144.06-24.59-215.88-8.27-13.46,3.05-26.87,8.4-40.38,8.87A7.38,7.38,0,0,1-12,331.6c-3.31,5.91-6.68,14.13-7.61,18.65-1.45,7.1,2.35,17.11,5.79,13.51l24.06-13.59C18,344,26.8,343.45,34.71,348.66c2.54,1.67,5,3.93,7.68,4.48,3.92.8,7.75-2.16,11.63-3.53,6.26-2.21,12.68-.25,19,1.3,69.81,17.14,140.62-17.36,210.73-5.84,13.14,2.16,26.24,5.93,39.42,6.26,1.92.05,4-.05,5.56-2.13a10.55,10.55,0,0,0,1.69-4.08Z" style="fill:#fff6b6"/></g><path id="fond3" d="M321.46,338.13l9,7a10.55,10.55,0,0,1-1.69,4.08c-1.6,2.08-3.64,2.18-5.56,2.13-13.18-.33-26.28-4.1-39.42-6.26-70.11-11.52-140.92,23-210.73,5.84-6.32-1.55-12.74-3.51-19-1.3-3.88,1.37-7.71,4.33-11.63,3.53-2.66-.55-5.14-2.81-7.68-4.48C26.8,343.45,18,344,10.23,350.17l-24.06,13.59c-3.44,3.6-7.24-6.41-5.79-13.51a66.57,66.57,0,0,1,4.34-12.12H-37v62.28H400V338.13Z" style="fill:#ffb400"/><g id="fond2"><path d="M405.88,344.46a268.16,268.16,0,0,0-125.38-21c-40.39,3-79.47,15.13-118.13,27.17L12.28,397.35c-2.95.92-6.18,2-7.7,4.74-2.24,4,.39,8.78,2.47,12.83,10.05,19.67,7.07,43.09,5.72,65.14-2.09,34,.3,68.1,2.7,102.08L72.6,585.8c31.22,2,62.46,4,93.75,4.09,53.29.13,106.43-5.31,159.44-10.75,2.8-.29,5.68-.6,8.15-1.93,4.46-2.4,6.63-7.51,8.13-12.33,2.92-9.41,4.5-19.17,6.3-28.86a629.62,629.62,0,0,1,47.25-148.5c7.28-15.79,15.43-32.52,12.9-49.71l-16.41,2.64" style="fill:#ffd200"/></g><g id="fond1"><path d="M-68.6,400.72a258,258,0,0,1,125.38-22c40.39,3.14,79.47,15.82,118.14,28.4L325,456c3,1,6.18,2.14,7.7,5,2.24,4.15-.39,9.17-2.46,13.41-10.06,20.56-7.08,45.05-5.72,68.09,2.08,35.55-.31,71.2-2.7,106.72L264.68,653c-31.22,2.1-62.46,4.19-93.74,4.27-53.3.14-106.43-5.55-159.45-11.24-2.8-.3-5.68-.62-8.15-2-4.45-2.5-6.63-7.84-8.13-12.88-2.92-9.84-4.5-20-6.3-30.17A680.18,680.18,0,0,0-58.34,445.74c-7.28-16.5-15.43-34-12.89-52l16.4,2.77" style="fill:#fff"/></g></g></svg>
