<svg id="roues" xmlns="http://www.w3.org/2000/svg" width="300" height="600" viewBox="0 0 300 600"><defs><style>.cls-1{fill:#cccccb;}.cls-2{fill:none;}</style></defs><g id="roues1"><path id="roue1" class="cls-1" d="M52.83,199.79c5.36-27.77,31.25-11,22.74-35.57s-18.51,4.53-39.91-14.07,6-32.56-19.51-37.55-5.28,18.3-32,27.48-25.22-21.59-42.25-2,13.23,13.77,7.87,41.55-31.25,11-22.74,35.55,18.52-4.52,39.92,14.07-6,32.57,19.49,37.56,5.3-18.3,32.05-27.47,25.22,21.58,42.26,2S47.47,227.55,52.83,199.79Zm-34.44,5.64A23.67,23.67,0,0,1-15,207.77a23.67,23.67,0,0,1-2.33-33.38h0a23.65,23.65,0,0,1,33.36-2.32h0A23.65,23.65,0,0,1,18.39,205.43Z"/><rect class="cls-2" x="-75.45" y="112.05" width="152.59" height="156.46"/></g><g id="roues2"><path id="roue2" class="cls-1" d="M426.57,483.94c-15.74-33.07-20.4,3.26-40.88-15.22s15.17-26.84-19.34-39.09-12.13,16.72-39.67,18.14-8.26-29.71-41.33-14,3.26,20.4-15.21,40.89S243.29,459.51,231,494s16.72,12.12,18.14,39.67-29.71,8.25-14,41.32,20.4-3.25,40.89,15.21-15.17,26.86,19.34,39.11,12.12-16.73,39.67-18.15,8.25,29.71,41.33,14-3.27-20.4,15.21-40.89,26.84,15.18,39.1-19.33S414,552.82,412.6,525.27,442.31,517,426.57,483.94Zm-92.93,98.7a53.23,53.23,0,0,1-55.91-50.41h0a53.23,53.23,0,0,1,50.41-55.91h0a53.23,53.23,0,1,1,5.5,106.32Z"/><rect class="cls-2" x="227.4" y="425.75" width="206.42" height="206.42"/></g></svg>
