<?xml version="1.0" encoding="UTF-8"?>
<svg id="vectos" xmlns="http://www.w3.org/2000/svg" width="300" height="250" xmlns:xlink="http://www.w3.org/1999/xlink" viewBox="0 0 300 250">
  <defs>
    <style>
      .cls-1 {
        fill: #fff;
      }

      .cls-2 {
        clip-path: url(#clippath-2);
      }

      .cls-3 {
        clip-path: url(#clippath-1);
      }

      .cls-4 {
        clip-path: url(#clippath);
      }

      .cls-5 {
        fill: none;
      }
    </style>
    <clipPath id="clippath">
      <circle class="cls-1" cx="37.55" cy="174.82" r="5.8"/>
    </clipPath>
    <clipPath id="clippath-1">
      <path class="cls-5" d="m37.55,174.82s2.93,2.72,4.22,3.99c-1.35,1.43-3.4,2.13-5.45,1.68-3.13-.68-5.12-3.78-4.43-6.91.68-3.13,3.78-5.12,6.91-4.43-.28,1.47-1.24,5.67-1.24,5.67Z"/>
    </clipPath>
    <clipPath id="clippath-2">
      <rect id="tomove" class="cls-5" x="37.56" y="169.19" width="6.04" height="12.37" transform="translate(38.33 -4.62) rotate(12.31)"/>
    </clipPath>
  </defs>
  <g id="_300x250" data-name="300x250">
    <g id="claquos">
      <path class="cls-1" d="m37.58,183.53c-4.72,0-8.55-3.7-8.72-8.41-.14-3.95,2.35-7.42,5.99-8.6-.04-.12-.07-.25-.07-.39l-.02-.45c-.01-.36.12-.7.36-.97.25-.26.58-.41.94-.42,0,0,2.29-.08,2.29-.08.77,0,1.36.57,1.39,1.29l.02.45c0,.14-.01.27-.04.39.59.15,1.16.36,1.71.63l.3-.33c.25-.27.61-.43.98-.43.34,0,.67.13.92.36l.85.79c.54.5.57,1.36.07,1.9l-.12.13c1.15,1.45,1.81,3.23,1.88,5.1.17,4.81-3.6,8.86-8.41,9.04-.11,0-.21,0-.32,0Zm-.19-14.17c-1.45.05-2.8.67-3.79,1.73s-1.51,2.45-1.46,3.9c.11,2.94,2.49,5.25,5.44,5.25h.2c3-.11,5.35-2.64,5.24-5.64-.11-2.94-2.49-5.25-5.44-5.25h-.2Z"/>
      <circle class="cls-1" cx="37.59" cy="174.96" r="6.9"/>
      <g id="mask2">
        <circle class="cls-1" cx="37.55" cy="174.82" r="5.8"/>
        <g class="cls-4">
          <path d="m41.89,178.92l-4.34-4.1s-1.61,3.42-2.52,5.39c.83.4,1.77.61,2.76.57,1.62-.06,3.07-.76,4.1-1.86Z"/>
        </g>
      </g>
      <g id="mask1">
        <g class="cls-3">
          <g class="cls-2">
            <circle cx="37.55" cy="174.82" r="5.8"/>
          </g>
        </g>
      </g>
      <path id="bordure" d="m43.17,169.43l.69-.74c.15-.17.15-.43-.02-.58l-.85-.79c-.17-.15-.43-.15-.58.02l-.79.85s0,0,0,0c-1.03-.62-2.2-1.01-3.46-1.1l-.02-.61h.3c.23-.02.4-.21.4-.44l-.02-.45c0-.23-.2-.4-.42-.4l-2.3.08c-.23,0-.4.2-.4.42l.02.45c0,.23.2.4.42.4h.3s.02.6.02.6c-3.89.56-6.81,3.98-6.66,7.99.15,4.3,3.77,7.66,8.07,7.51,4.3-.15,7.66-3.77,7.51-8.07-.07-2.01-.9-3.82-2.2-5.15Zm-5.36,11.8c-3.51.13-6.48-2.63-6.6-6.14-.13-3.51,2.63-6.48,6.14-6.6,3.51-.13,6.48,2.63,6.6,6.14s-2.63,6.48-6.14,6.6Z"/>
    </g>
  </g>
</svg>