<?xml version="1.0" encoding="UTF-8"?>
<svg id="vectos" xmlns="http://www.w3.org/2000/svg" width="299.96" height="599.92" xmlns:xlink="http://www.w3.org/1999/xlink" viewBox="0 0 299.96 599.92">
  <defs>
    <style>
      .cls-1 {
        fill: #fff;
      }

      .cls-2 {
        fill: #af6e41;
      }

      .cls-3 {
        fill: #2e1d12;
      }

      .cls-4 {
        fill: #fefdfd;
      }

      .cls-5 {
        fill: #dbba6a;
      }

      .cls-6 {
        fill: #fab418;
      }

      .cls-7 {
        fill: #834a23;
      }

      .cls-8 {
        clip-path: url(#clippath);
      }

      .cls-9 {
        fill: none;
      }

      .cls-10 {
        fill: #feca15;
      }

      .cls-11 {
        fill: #e57413;
      }
    </style>
    <symbol id="flower" viewBox="0 0 75.46 68.81">
      <g>
        <path class="cls-11" d="M49.38,22.65c-.46,.08-.76,.37-.7,.87,.06,.52-.23,.87-.51,1.23-2.27,2.9-5.2,5.13-7.77,7.74-.15,.15-.35,.29-.54,.11-.17-.16-.11-.39,.05-.55,1.41-1.44,2.36-3.33,4.22-4.33,.46-.25,.81-.65,.41-1.08-.66-.7-.19-1.07,.25-1.52,.44-.44,.86-.88,1.53-1,.37-.06,.71-.32,.67-.77-.03-.34-.2-.69-.56-.75-.46-.08-.79,.2-.96,.63-.12,.32-.28,.59-.52,.83-1.91,1.95-3.76,3.96-4.78,6.56-.14,.36-.4,.45-.66,.19-.51-.51-.06-2.7,.62-3.06,1.77-.94,2.3-2.53,2.41-4.37-.48,.46-.85,1-1.26,1.5-.38,.46-.93,.4-1.38,.23-.49-.18-.18-.65-.13-.98,.07-.52,.09-1.07,.62-1.42,.37-.24,.38-.63,.15-.99-.17-.27-.44-.38-.76-.29-.4,.12-.64,.36-.62,.81,.07,2.12-.53,4.2-.46,6.33,.01,.45-.03,.96-.62,1.44-.18-1.23-.35-2.28-.48-3.34-.12-.97-.51-1.96,.26-2.87,.2-.23,.05-.56-.14-.81-.26-.35-.56-.27-.88-.09-.23,.13-.58,.45-.64-.05-.14-1.15-.99-2.23-.32-3.49,.36-.67-.05-1.24-.69-1.5-.61-.25-1.16-.03-1.5,.54-.38,.64-.25,1.29,.37,1.63,1.74,.95,1.16,2.65,1.71,4.28-1.15-.56-1.32-1.33-1.49-2.15-.13-.64-.63-1.01-1.32-.8-.69,.21-1.19,.65-1.05,1.47,.12,.68,.53,1.29,1.26,1.04,.87-.3,1.21,.11,1.6,.7,.57,.87,1.13,1.74,1.25,2.81l-.44,.17c-.6-.44-1.19-.89-1.8-1.31-1.19-.81-2.45-1.48-3.97-1.66v-.19c0,.06,0,.13-.02,.19h.02c.11,.37,.36,.55,.73,.72,.98,.45,1.95,.94,2.87,1.5,1.36,.83,2.56,1.86,3.38,3.25,.49,.83,.61,2.06,.15,2.58-.56,.64-1.34-.35-1.91-.79-.66-.51-1.49-.97-1.03-2.15,.26-.68-.3-1.19-.97-1.34-.73-.17-1.22,.25-1.44,.9-.21,.64,.08,1.12,.67,1.44,.38,.2,1.02-.02,1.21,.9-.66-.21-1.15-.41-1.65-.51-.38-.08-.9-.59-1.14,.09-.21,.57,.19,.92,.73,1.09,1,.31,1.99,.63,3.22,1.03-1.23,.76-2.19,.52-3.15,.28-.2-.05-.44-.13-.54,.12-.09,.23,.07,.38,.28,.47,.17,.08,.42,.05,.5,.41l2.24,.23s.03,.04,.06,.06c-.73,1.05-1.21,2.12-2.03,2.73-.75,.55,.06,.47,.17,1.09,.06,.34-.98,1.58-.29,1.51,.45-.04,.78-.53,.75-1.03-.14-2.05,1.45-3.04,2.58-4.3,.22-.25,.57-.42,.9-.22,.39,.23,.21,.6,.09,.89-.25,.61-.48,1.25-.83,1.81-1.02,1.6-1.71,3.33-2.17,5.15-.16,.65-.3,1.26-.8,1.78-.56,.57-.42,1.21,.12,1.77,.52,.54,1.08,.38,1.56-.01,.61-.49,.71-1.11,.21-1.75-.23-.29-.58-.5-.49-.95,.34-1.73,.84-3.41,1.9-4.89,0,.76,.45,1.46-.1,2.26-.45,.64-.08,1.31,.56,1.68,.62,.35,1.16,0,1.54-.46,.46-.57,.42-1.37-.18-1.64-1.25-.55-1.07-1.49-.99-2.47,.12-.06,.24-.12,.36-.18,.15,.11,.3,.3,.45,.38,.05,.03,.1,.04,.14,.04,1.32-.09,1.14,.74,1.09,1.6-.11,1.95-.13,3.91,.32,5.83,.15,.63,.44,1.24,.06,1.93-.2,.35,.03,.73,.39,.95,.29,.17,.57,.05,.8-.15,.34-.29,.35-.66,.14-1.01-.75-1.25-.99-2.58-1.05-3.94-.02-.41-.02-.82-.02-1.23,0-.41,.02-.82,.02-1.24h.02c.12-.07,.25-.14,.37-.2,.7,1.69,1.05,3.58,2.34,4.92,.3,.31,.65,.59,1.06,.83,.12,.07,.16,.28,.22,.44,.16,.39,.39,.65,.85,.5,.33-.11,.63-.31,.61-.7-.02-.47-.29-.73-.78-.82-1.86-.36-2.49-1.77-2.96-3.45,.69,.1,1.41,.3,1.48-.54,.07-.79-.55-.87-1.21-.82-.47,.04-.81-.31-.92-.72-.26-.96-.44-1.94-.64-2.91-.02-.1,.1-.32,.1-.32,.91,.25,2.02-.56,2.78,.45,1.26,1.68,2.99,3,3.76,5.05,.22,.59,.88,.85,1.14,.34,.59-1.15,1.02-.41,1.54-.06,.56,.38,1.02,.83,1.38,1.41,.2,.32,.55,.36,.88,.18,.28-.15,.44-.37,.43-.7-.01-.39-.26-.7-.6-.69-1.39,.06-2.14-1.03-3.08-1.71-1.22-.89-2.47-1.81-3.34-3.13,.98,.23,2.05,.08,2.78,.88,.34,.36,.66,.49,1.08,.2,.3-.21,.45-.49,.3-.86-.21-.49-.61-.46-1.05-.41-.74,.1-1.46,.01-2.18-.34,.49-.03,.93-.09,1.37-.07,1.84,.09,3.51-.95,5.37-.75,.31,.03,.52-.23,.59-.55,.07-.31-.03-.58-.29-.77-.26-.19-.58-.24-.81-.02-1.37,1.39-3.2,1.31-4.9,1.43-1.41,.1-2.93,.21-4.47-.69,1.38-.66,2.58-1.22,3.67-1.97,.22-.15,.45-.14,.71-.08,.7,.15,1.05-.12,1.22-.84,.2-.88,1.54-1.71,2.18-1.42,.89,.4,1.48,.05,1.81-.72,.29-.67-.07-1.28-.69-1.55-.79-.34-1.39,.09-1.67,.84-.19,.51-.5,.87-.92,1.13-2.09,1.34-3.98,2.99-6.31,3.96-.87,.36-1.21-.14-1.05-.7,.22-.72,.38-1.64,1.32-1.96,2.42-.81,4.36-2.38,6.25-4.02,.46-.4,.81-.94,1.58-.74,.35,.09,.62-.22,.72-.57,.1-.36-.08-.66-.38-.85-.35-.22-.66-.04-.9,.19-.51,.49-.96,1.04-1.48,1.52-1.93,1.78-4.01,3.35-6.61,4.04-.04-.06-.08-.12-.13-.17,2.52-2.84,5.5-5.24,7.96-8.15,.25-.3,.54-.53,.4-.95-.12-.35-.4-.56-.77-.5Z"/>
        <path class="cls-4" d="M58.54,.08c-2,0-6.32,1.44-7,2-4.15,3.39-6.64,9.86-7.74,15.37-.01,.06-.1,.11-.19,.21-.34-.35-.19-.78-.25-1.16-.47-2.95-.93-5.95-2.2-8.61C37.89-2.22,15.92,.13,15.66,15.07c-.55,3.59-.19,5.48,.66,7.35-.51,.14-1.03,.25-1.56,.31-3.25,.42-6.27,1.58-9.17,3.07-1.35,.69-2.24,1.72-2.63,3.2-.34,1.28-.75,2.52-1.4,3.69-.23,.42-.44,.96-.38,1.41,.32,2.51,.16,4.99,.04,7.5-.06,1.15-.07,2.14-.6,3.23-1.95,3.98,1.05,9.22,5.51,9.77,.38,.05,.79,.14,1.15,.05,5.57-1.41,11.51-1.2,16.89-3.49,.11,1.17,.2,2.39,.3,3.67,.21,2.89,1.44,5.62,3.46,7.69h0c2.9,2.97,6.57,5.09,10.61,5.99,1.53,.34,2.99,.46,4.18-.07,3.96-1.8,6.29-4.9,7.31-9.07,.18-.74,.04-1.48-.06-2.39,.85,.56,1.54,1.12,2.4,1.43,1.26,.45,2.5,.29,3.75,.08,.98-.16,1.97-.34,2.95-.51,.62-.11,1.28-.23,1.84,.06,2.33,1.2,4.41,.42,6.36-.83,1.4-.9,2.72-1.92,4.04-2.93,.92-.95,1.79-1.83,2.58-2.6,.96-1.49,1.42-3.24,1.58-5.13,.07-.85-.11-1.64-.46-2.42-1.97-4.4-4.42-8.41-8.81-10.82-.63-.35-.38-.62-.11-1.06,.87-1.42,3.29-5.03,4.48-6.15,10-10-4-23-8-18,0,0,5-9-4-8Zm-8.39,23.07c.14,.42-.15,.65-.4,.95-2.46,2.91-5.44,5.31-7.96,8.15,.05,.05,.09,.11,.13,.17,2.6-.69,4.68-2.25,6.61-4.04,.52-.48,.97-1.03,1.48-1.52,.24-.24,.55-.41,.9-.19,.31,.19,.48,.49,.38,.85-.09,.34-.37,.66-.72,.57-.77-.2-1.12,.34-1.58,.74-1.89,1.64-3.83,3.21-6.25,4.02-.94,.31-1.1,1.23-1.32,1.96-.17,.56,.18,1.05,1.05,.7,2.34-.96,4.22-2.61,6.31-3.96,.42-.27,.73-.62,.92-1.13,.27-.75,.88-1.18,1.67-.84,.61,.26,.98,.87,.69,1.55-.33,.77-.92,1.13-1.81,.72-.64-.29-1.98,.54-2.18,1.42-.17,.73-.52,1-1.22,.84-.26-.06-.49-.07-.71,.08-1.09,.75-2.28,1.31-3.67,1.97,1.54,.9,3.06,.79,4.47,.69,1.69-.12,3.53-.04,4.9-1.43,.22-.23,.54-.18,.81,.02,.26,.19,.35,.45,.29,.77-.07,.32-.29,.58-.59,.55-1.86-.2-3.53,.84-5.37,.75-.44-.02-.89,.04-1.37,.07,.72,.35,1.44,.43,2.18,.34,.44-.06,.84-.09,1.05,.41,.15,.37,0,.65-.3,.86-.42,.29-.75,.17-1.08-.2-.73-.79-1.81-.64-2.78-.88,.87,1.31,2.11,2.24,3.34,3.13,.93,.68,1.69,1.77,3.08,1.71,.33-.01,.59,.29,.6,.69,.01,.33-.16,.55-.43,.7-.34,.18-.69,.14-.88-.18-.36-.58-.82-1.03-1.38-1.41-.53-.36-.96-1.09-1.54,.06-.26,.51-.92,.25-1.14-.34-.77-2.05-2.5-3.37-3.76-5.05-.76-1.01-1.86-.19-2.78-.45,0,0-.12,.22-.1,.32,.2,.97,.38,1.95,.64,2.91,.11,.41,.45,.76,.92,.72,.66-.05,1.28,.03,1.21,.82-.07,.83-.79,.64-1.48,.54,.47,1.68,1.1,3.09,2.96,3.45,.49,.1,.75,.36,.78,.82,.02,.39-.28,.59-.61,.7-.46,.15-.69-.12-.85-.5-.06-.15-.1-.37-.22-.44-.41-.24-.76-.52-1.06-.83-1.29-1.34-1.65-3.23-2.34-4.92-.12,.06-.25,.13-.37,.19h-.02c0,.42-.02,.84-.02,1.25,0,.41,0,.82,.02,1.23,.06,1.36,.3,2.69,1.05,3.94,.21,.36,.21,.72-.14,1.01-.23,.2-.51,.32-.8,.15-.36-.21-.59-.59-.39-.95,.38-.68,.09-1.3-.06-1.93-.45-1.93-.43-3.88-.32-5.83,.05-.85,.22-1.69-1.09-1.6-.05,0-.09-.01-.14-.04-.15-.08-.3-.27-.45-.38-.12,.06-.24,.12-.36,.18-.08,.98-.26,1.92,.99,2.47,.6,.27,.65,1.07,.18,1.64-.38,.46-.92,.81-1.54,.46-.65-.37-1.01-1.04-.56-1.68,.55-.79,.09-1.5,.1-2.26-1.07,1.48-1.56,3.16-1.9,4.89-.09,.44,.27,.65,.49,.95,.49,.64,.4,1.26-.21,1.75-.49,.39-1.04,.55-1.56,.01-.54-.56-.68-1.2-.12-1.77,.51-.52,.64-1.13,.8-1.78,.46-1.83,1.15-3.55,2.17-5.15,.35-.55,.58-1.19,.83-1.81,.12-.29,.31-.66-.09-.89-.34-.2-.68-.03-.9,.22-1.13,1.27-2.72,2.26-2.58,4.3,.03,.5-.3,.99-.75,1.03-.69,.06,.34-1.18,.29-1.51-.11-.62-.91-.53-.17-1.09,.82-.6,1.3-1.68,2.03-2.73-.02-.02-.04-.04-.06-.06l-2.24-.23c-.08-.36-.33-.33-.5-.41-.21-.1-.38-.25-.28-.47,.1-.24,.34-.17,.54-.12,.96,.24,1.92,.48,3.15-.28-1.24-.39-2.23-.71-3.22-1.03-.54-.17-.94-.52-.73-1.09,.25-.68,.77-.16,1.14-.09,.51,.1,1,.3,1.65,.51-.2-.91-.83-.69-1.21-.9-.59-.32-.88-.8-.67-1.44,.22-.65,.71-1.06,1.44-.9,.68,.16,1.24,.66,.97,1.34-.45,1.18,.37,1.64,1.03,2.15,.57,.44,1.35,1.43,1.91,.79,.46-.53,.35-1.75-.15-2.58-.82-1.39-2.02-2.42-3.38-3.25-.92-.56-1.89-1.05-2.87-1.5-.36-.17-.62-.35-.73-.72h-.02c0-.07,.01-.13,.02-.19v.19c1.51,.18,2.77,.85,3.96,1.66,.61,.41,1.2,.86,1.8,1.31l.44-.17c-.12-1.07-.68-1.94-1.25-2.81-.39-.59-.73-1-1.6-.7-.73,.26-1.14-.36-1.26-1.04-.15-.81,.35-1.25,1.05-1.47,.69-.21,1.19,.16,1.32,.8,.17,.83,.33,1.59,1.49,2.15-.55-1.63,.03-3.33-1.71-4.28-.62-.34-.75-.99-.37-1.63,.34-.57,.89-.79,1.5-.54,.65,.26,1.05,.83,.69,1.5-.67,1.26,.17,2.34,.32,3.49,.06,.51,.41,.18,.64,.05,.32-.18,.62-.25,.88,.09,.18,.25,.33,.58,.14,.81-.77,.91-.37,1.9-.26,2.87,.13,1.05,.3,2.1,.48,3.34,.59-.48,.63-.98,.62-1.44-.07-2.13,.52-4.2,.46-6.33-.01-.45,.23-.7,.62-.81,.32-.09,.59,.02,.76,.29,.23,.36,.22,.75-.15,.99-.54,.35-.55,.9-.62,1.42-.05,.34-.36,.8,.13,.98,.45,.17,1.01,.23,1.38-.23,.41-.5,.78-1.03,1.26-1.5-.1,1.84-.64,3.43-2.41,4.37-.67,.36-1.12,2.55-.62,3.06,.26,.26,.52,.18,.66-.19,1.02-2.6,2.87-4.6,4.78-6.56,.24-.25,.4-.52,.52-.83,.17-.42,.49-.7,.96-.63,.36,.06,.53,.4,.56,.75,.03,.45-.3,.71-.67,.77-.67,.11-1.09,.56-1.53,1-.44,.45-.92,.82-.25,1.52,.41,.43,.06,.83-.41,1.08-1.86,1.01-2.81,2.89-4.22,4.33-.16,.16-.22,.39-.05,.55,.19,.17,.39,.04,.54-.11,2.56-2.61,5.5-4.84,7.77-7.74,.28-.36,.57-.71,.51-1.23-.06-.5,.24-.79,.7-.87,.37-.06,.65,.15,.77,.5Z"/>
      </g>
    </symbol>
    <clipPath id="clippath">
      <path id="mask-skirt" class="cls-9" d="M65,340c26-8,69.86-27.19,99-48,14-10,8.76-18.82,11-30,3-15,11-31,11-31,0,0,24,6,35,7s24,1,24,1c0,0,5,31,4,45-7,4-25,9-34,20-9.5,11.61-18,32-26,52-13.78,34.45-17,52-24,71s-13,25-13,25c0,0-35.03-21.98-53.5-46.5-27.5-36.5-33.5-60.5-33.5-65.5Z"/>
    </clipPath>
  </defs>
  <g id="vahine">
    <g id="body">
      <path class="cls-7" d="M201.11,426.48c-4.07-16.18-9.38-32.08-12.55-48.46-.35-15.69-.69-31.45-1.6-47.16-4.1-17.71-12.65-35.11-12.9-53.47,.42-16.56,4.69-32.12,12.51-46.65,3.86-6.36,4-13.23,3.27-20.38-1.12-14.45-2.88-29.06-8.21-42.6-1.28,18.98-1.01,37.88-2.15,56.85-2.16,14.39-8.2,27.83-11.18,42.06-2.54,7.29,2.29,14.69-.93,21.8-.61,1.67-1.36,3.31-1.05,5.16-1.26,2.65-4.85,3.99-7.14,5.84-6.27,2.06,.92-21.46-.15-25.62,.9-21.88-.21-43.88,4.78-65.4,4-18.06-.85-36.86,2.8-54.96,4.23-10.6,17.58-8.54,26.65-10.93,6.4-1.07,4.58-8.06,4.64-12.86,.59-2.97,10.24-2.95,13.18-4.53,.99-.13,2.39-1.38,2.44,.36,.76,9.2,1.23,18.41,1.75,27.63,3.25,32.68-.1,65.14-9.5,96.55-1.64,11.71-8.64,22.51-8.73,34.25,2.61,19.75,7.07,39.45,7.75,59.43,.54,12.54,1.57,25.42-1.95,37.67-3.53,14.86-.58,30.55-1.73,45.42Z"/>
      <path class="cls-2" d="M201.11,426.48c.95-9.13-1.58-18.8-.95-28.11-.61-11.38,3.63-22.05,4.12-33.35,.96-27.33-3.23-54.22-7.24-81.07-.47-3.67-.66-7.04,.73-10.46,7.66-23.29,13.99-47.16,17.22-71.49,1.89-23.81,.16-47.93-1.1-71.71,2.77,7.91,9.33,13.92,17.35,16.29,11.28,10.5,8.17,28.85,25.21,32.16,.32,10.49,.36,20.75,1.63,31.18,.67,4.15,2.11,8.16,2.46,12.32,.87,9.14,.09,18.85,.57,28.06-1.63,15.66,2.03,32.31-1.54,47.26-.04,.58-.77,.88-.54,1.43-.47,1.29-.94,2.59-1.41,3.88-.3,.01-.54,.14-.71,.4-2.56,.51-8.97,4.85-10.75,3.42-1.46-5.68,8.31-3.39,7.89-9.83,0-1.66,1.37-3.99-.34-5.12-4.15-1.68-1.22,4.78-2.73,6.79-.29,1.75-3.67,3.47-3.86,1.31,.22-.16,.25-.35,.07-.57,.32-7.83,0-13.72,4.6-20.67,1.39-8.02-2.1-15.35-3.74-23.01-1.25-4.3-1.22-9.64-3.5-13.34-3.88-17.3-2.54-35.17-2.91-52.79-36.36,39.06-12.61,76.55-17.33,124.11,1.8,20.25-4.39,39.69-8.3,59.3-1.28,16.71,1.01,33.49,1.01,50.23-.1,31.38-7.3,31.1,6.03,63.53-5.29-2.93-9.18-8.79-9.55-15.27-.23-6.51-7.25-10.63-13.3-5.74,2-12.92,2.4-26.04,.89-39.13Z"/>
      <path class="cls-7" d="M200.22,465.61c3.16-2.81,7.69-2.45,9.78-.95,2.29,1.64,3.29,4.08,3.52,6.69,.5,5.76,2.83,10.4,7.54,13.82,.49,.35,1.04,.72,1.18,1.4-5.77,.02-11.55,.05-17.32,.07-.77,0-1.54,0-2.31,.01,.46-2.6,.91-5.2,1.39-7.8,.5-2.69-.5-4.97-1.85-7.2-1.11-1.85-2.16-3.75-1.93-6.05Z"/>
      <path class="cls-5" d="M256.6,163.42c-.2-2.79-.31-5.66-1.88-8.16q-.72-1.26-1.86-2.68c-5.67-5.46-14.48-4.16-21.62-6.01,7.72,7.44,5.7,10.65,10.25,18.55-.04,.43,.51,1.08,.75,1.95,3.08,5.5,7.7,11.25,14.51,11.66,.56-5.11,.22-10.22-.15-15.31Z"/>
      <path class="cls-5" d="M224.58,322.44c.14,17.25-5.46,33.64-8.55,50.42-1.07,19.94,.98,40,1.51,59.98,6.72-26.66,14.37-52.54,11.16-80.31,4.72-26,19.72-51.84,19.14-77.34-.12,0-.27,0-.41,0,.13,0,.29-.02,.41,0-.18-17.09-2.78-33.93-8.17-50.17-2.72-11.84,1.42-25.96,2.23-37.4-7.4,11.07-18.63,23.98-20.16,37.7-3.74,33.68,2.26,63.68,2.83,96.56m22.85-46.68c-.07,0-.13,0-.18-.01,.05,0,.11,.01,.18,.01Z"/>
    </g>
    <g id="skirt">
      <g class="cls-8">
        <path id="mask-skirt-2" data-name="mask-skirt" class="cls-11" d="M46.74,329.85c27.72-8.53,73.77-27.03,104.83-49.22,14.93-10.66,11.8-14.56,14.18-26.48,3.2-15.99,20.01-30.9,20.01-30.9,0,0,25.59,6.4,37.32,7.46,11.73,1.07,25.59,1.07,25.59,1.07,0,0,9.36,35.87,8.29,50.8-7.46,4.26-22.96,13.41-32.56,25.14-10.13,12.38-17.59,34.17-26.12,55.5-14.69,36.74-10.37,57.98-17.83,78.23-7.46,20.26-21.92,41.01-21.92,41.01,0,0-56.5-35.54-76.2-61.68-29.32-38.92-35.59-85.6-35.59-90.93Z"/>
        <use width="75.46" height="68.81" transform="translate(203.58 216.8) rotate(25.77) scale(.9)" xlink:href="#flower"/>
        <use width="75.46" height="68.81" transform="translate(181.7 279.55) rotate(25.77) scale(.98 1.06)" xlink:href="#flower"/>
        <use width="75.46" height="68.81" transform="translate(117.44 395.69) rotate(-136) scale(1.13 1.22)" xlink:href="#flower"/>
        <use width="75.46" height="68.81" transform="translate(54.25 394.97) rotate(-12.31) scale(1.41 1.48)" xlink:href="#flower"/>
      </g>
      <path id="maskmorph" class="cls-9" d="M66.77,348.57c26-8,70.21-21.76,97.23-56.57,10.55-13.59,8.76-18.82,11-30,3-15,11-31,11-31,0,0,24,6,35,7s24,1,24,1c0,0,5,31,4,45-7,4-25,9-34,20-9.5,11.61-12.37,35.06-20.37,55.06-13.78,34.45-8.12,55.39-15.12,74.39s-22.21,41.63-22.21,41.63c0,0-51.8-37.44-67.74-63.68-23.81-39.19-22.79-57.84-22.79-62.84Z"/>
    </g>
    <path id="hair" class="cls-3" d="M231.66,98.99c-1.06,27.32-7.83,54.44-15.5,80.68-8.69,32.08-34.87,53.69-67.93,55.18h-11.3c-25.95-3.26-45.26-24.34-55.07-47.59,21.12,1,40.77-11.59,42.74-33.65,11.51-29.82,35.56-14.9,55.3-28.03,15.07-12.74-5.67-37.1,25.98-46.58h7.53c12.72,2.72,15.83,8.11,18.25,19.99Z"/>
    <path id="hairmoprh" class="cls-9" d="M231.66,98.99c-1.06,27.32-15.02,52.64-18.62,79.74-6.24,47.03-4.8,72.69-55.75,62.83-7.8-1.51-20.08-1.51-23.84-1.51-42.77-4-30.39-19.32-40.19-42.57,21.12,1,32.61-13.66,37.39-34.83,7.04-31.18,29.51-23.95,49.25-37.07,15.07-12.74-5.67-37.1,25.98-46.58h7.53c12.72,2.72,15.83,8.11,18.25,19.99Z"/>
    <g id="flower-2" data-name="flower">
      <path class="cls-1" d="M195.56,114.94c-.43-2.61-3.63-1.74-4.79-1.16s-4.6,1.16-4.6,1.16c0,0-.09,.02-.2,.06l-.28-.29c.14-.1,.28-.21,.44-.34,0,0,2.9-2.03,3.19-4.35s.58-5.75-3.19-5.48-2.03,5.19-1.74,6.35,.58,2.61,0,3.48c0,0-1.74-5.51-6.37-6.09s-4.92,3.98-3.76,4.89c1.16,.91,1.99,1.2,6.64,1.2s2.34,.88,2.34,.88c-2.61-.86-5.51,1.15-6.67,2.59s-.87,4.06,.56,5.8,2.92,.87,3.78,0,2.32-6.29,2.32-6.29v-.95l.52,.24c0,.33,0,.81-.02,1.55-.07,2.37,1.81,4.87,2.1,5.74s3.19,1.74,4.66,1.02c1.47-.72,1.14-3.05,.56-3.63s-4.45-4.11-4.45-4.11c0,0-.35-.51-.94-.85l.26-.19c1.21,.85,4.01,1.68,5.71,1.97,1.74,.29,4.35-.58,3.92-3.19Z"/>
      <path class="cls-10" d="M186.28,114.55s.03-.5,.61-1.08,.81-1.96-.61-2.29-1.13,1.72-1.42,2.15-.87,.14-.87-.15-.58-2.61-2.9-1.74c-2.32,.87-.28,2.94,.3,2.94,.87,0,2,.12,2.03,.29,.06,.36-2.03,0-2.61,.29-1.74,.87-.94,2.47-.3,2.57,2.04,.33,1.75-1.41,2.62-1.12s.58,.29,.58,.87,.58,1.92,1.45,2.03c.72,.09,.94-1.41,.93-2.18,0-.26,.19-.48,.45-.53,.22-.04,.52-.11,.93-.23,1.5-.43,2.03-1.16,1.45-1.45s-1.79,.14-2.64-.37Z"/>
      <circle class="cls-6" cx="184.64" cy="114.86" r="1.01"/>
    </g>
  </g>
</svg>