<?xml version="1.0" encoding="UTF-8"?>
<svg id="vectos" xmlns="http://www.w3.org/2000/svg" width="728" height="90" xmlns:xlink="http://www.w3.org/1999/xlink" viewBox="0 0 728 90">
  <defs>
    <style>
      .cls-1 {
        fill: #fff;
      }

      .cls-2 {
        clip-path: url(#clippath-2);
      }

      .cls-3 {
        clip-path: url(#clippath-1);
      }

      .cls-4 {
        clip-path: url(#clippath);
      }

      .cls-5 {
        fill: none;
      }
    </style>
    <clipPath id="clippath">
      <circle class="cls-1" cx="378.07" cy="71.89" r="5.29"/>
    </clipPath>
    <clipPath id="clippath-1">
      <path class="cls-5" d="m378.07,71.89s2.67,2.48,3.84,3.64c-1.23,1.3-3.09,1.94-4.97,1.53-2.85-.62-4.66-3.44-4.04-6.3.62-2.85,3.44-4.66,6.3-4.04-.26,1.34-1.13,5.17-1.13,5.17Z"/>
    </clipPath>
    <clipPath id="clippath-2">
      <rect id="tomove" class="cls-5" x="378.08" y="66.76" width="5.5" height="11.27" transform="translate(24.2 -79.55) rotate(12.31)"/>
    </clipPath>
  </defs>
  <g id="_728x90" data-name="728x90">
    <g id="claquos">
      <path class="cls-1" d="m378.1,79.83c-4.3,0-7.79-3.37-7.94-7.67-.13-3.6,2.14-6.76,5.45-7.84-.04-.11-.06-.23-.06-.35v-.41c-.03-.33.09-.64.31-.88.22-.24.53-.38.85-.39,0,0,2.09-.08,2.09-.08.71,0,1.24.52,1.27,1.18v.41c.02.12,0,.24-.03.36.54.14,1.06.33,1.56.57l.28-.3c.23-.25.56-.39.9-.39.31,0,.61.12.84.33l.77.72c.49.46.52,1.23.06,1.73l-.11.12c1.05,1.32,1.65,2.94,1.71,4.65.16,4.38-3.28,8.07-7.66,8.23-.1,0-.19,0-.29,0Zm-.17-12.91c-1.32.05-2.55.61-3.45,1.58s-1.38,2.23-1.33,3.55c.1,2.68,2.27,4.78,4.95,4.78h.18c2.73-.1,4.88-2.4,4.78-5.14-.1-2.68-2.27-4.78-4.95-4.78h-.18Z"/>
      <circle class="cls-1" cx="378.1" cy="72.02" r="6.29"/>
      <g id="mask2">
        <circle class="cls-1" cx="378.07" cy="71.89" r="5.29"/>
        <g class="cls-4">
          <path d="m382.02,75.63l-3.95-3.74s-1.47,3.11-2.3,4.91c.76.36,1.61.55,2.51.52,1.48-.05,2.79-.69,3.74-1.69Z"/>
        </g>
      </g>
      <g id="mask1">
        <g class="cls-3">
          <g class="cls-2">
            <circle cx="378.07" cy="71.89" r="5.29"/>
          </g>
        </g>
      </g>
      <path id="bordure" d="m383.19,66.98l.63-.68c.14-.15.13-.39-.02-.53l-.78-.72c-.15-.14-.39-.13-.53.02l-.72.78s0,0,0,0c-.93-.57-2.01-.92-3.15-1.01l-.02-.56h.27c.21-.02.37-.19.36-.4v-.41c-.02-.21-.2-.37-.4-.36l-2.09.08c-.21,0-.37.18-.36.39v.41c.02.21.2.37.4.36h.27s.02.55.02.55c-3.54.51-6.2,3.62-6.07,7.28.14,3.92,3.43,6.98,7.35,6.84,3.92-.14,6.98-3.43,6.84-7.35-.07-1.83-.82-3.48-2-4.69Zm-4.88,10.76c-3.2.11-5.9-2.4-6.01-5.6-.11-3.2,2.4-5.9,5.6-6.01,3.2-.11,5.9,2.4,6.01,5.6s-2.4,5.9-5.6,6.01Z"/>
    </g>
  </g>
</svg>