<svg id="leafs" xmlns="http://www.w3.org/2000/svg" xmlns:xlink="http://www.w3.org/1999/xlink" width="300" height="600" viewBox="0 0 300 600"><defs><style>.cls-1{fill:#ffd200;}.cls-1,.cls-2{fill-rule:evenodd;}.cls-2{fill:#ff7900;}.cls-3{fill:none;}</style><symbol id="leafa" data-name="leafa" viewBox="0 0 10.27 18"><path class="cls-1" d="M2.17,6.24A17.83,17.83,0,0,0,.35,7.89a19.2,19.2,0,0,0,1.27,3.64A19,19,0,0,1,4,10.22,29,29,0,0,0,2.33,13a20.85,20.85,0,0,0,1.4,2.26C4.36,14.55,5,14,5,14a12.77,12.77,0,0,0-.72,1.93C5.31,17.25,6.36,18.08,7.09,18s1.5-1.58,2.13-3.67a8.64,8.64,0,0,0-1.6-1.53,16.79,16.79,0,0,1,1.88.53,24,24,0,0,0,.58-3.08A11.17,11.17,0,0,0,7.47,8a7.52,7.52,0,0,1,2.76.71c.18-3-.23-5.87-1.77-7.32C5.76-1.19,1.22.07.27,3.19a8.59,8.59,0,0,0-.08,4A13.54,13.54,0,0,1,2.17,6.24Z"/></symbol><symbol id="leafb" data-name="leafb" viewBox="0 0 37.01 45.48"><path class="cls-2" d="M22.36,34a48.72,48.72,0,0,0,6.94.16,57.57,57.57,0,0,0,4.47-9.93,53.5,53.5,0,0,1-7.44-1.93,78.52,78.52,0,0,0,8.77-2.41,60.58,60.58,0,0,0,1.51-7.33c-2.62.17-4.94.21-4.94.21a35.36,35.36,0,0,0,5.2-2.56c.42-4.85-.13-8.61-1.79-9.84s-6.14.33-11.5,3.39A25.12,25.12,0,0,0,23.9,10,48.37,48.37,0,0,1,21.06,5.3a75,75,0,0,0-7.15,5.17,31.53,31.53,0,0,0,1,9.71,21.53,21.53,0,0,1-4.26-6.82C4.46,19.1-.31,25.84,0,31.79.59,42.28,12.34,48.52,20.34,44a24.11,24.11,0,0,0,7.84-8A37.19,37.19,0,0,1,22.36,34Z"/></symbol></defs><g id="leaf1s"><g id="b6"><use width="10.27" height="18" transform="translate(276.99 54.04)" xlink:href="#leafa"/><rect class="cls-3" x="276.57" y="53.67" width="10.98" height="18.55"/></g><g id="b5"><use width="10.27" height="18" transform="translate(266.24 184.89) rotate(6.09)" xlink:href="#leafa"/><rect class="cls-3" x="265.4" y="185.04" width="10.71" height="18.79"/></g><g id="b4"><use width="10.27" height="18" transform="matrix(0.79, -0.3, 0.3, 0.79, 9.67, 228.87)" xlink:href="#leafa"/><rect class="cls-3" x="10.62" y="226.84" width="10.92" height="14.49"/></g><g id="b3"><use width="37.01" height="45.48" transform="translate(221.1 204.41) rotate(5.5) scale(0.36)" xlink:href="#leafb"/><rect class="cls-3" x="219.19" y="204.79" width="15.48" height="17.02"/></g><g id="b2"><use width="37.01" height="45.48" transform="matrix(0.13, -0.38, 0.38, 0.13, 189.16, 182.74)" xlink:href="#leafb"/><rect class="cls-3" x="193" y="168.59" width="16.25" height="18.79"/></g><g id="b1"><use width="37.01" height="45.48" transform="translate(46.28 250.11) rotate(-177.41) scale(0.41)" xlink:href="#leafb"/><rect class="cls-3" x="31.07" y="230.97" width="16.28" height="18.23"/></g></g><g id="leaf2s"><g id="a6"><use width="10.27" height="18" transform="translate(276.99 54.04)" xlink:href="#leafa"/><rect class="cls-3" x="276.57" y="53.67" width="10.98" height="18.55"/></g><g id="a5"><use width="10.27" height="18" transform="translate(266.24 184.89) rotate(6.09)" xlink:href="#leafa"/><rect class="cls-3" x="265.4" y="185.04" width="10.71" height="18.79"/></g><g id="a4"><use width="10.27" height="18" transform="matrix(0.79, -0.3, 0.3, 0.79, 9.67, 228.87)" xlink:href="#leafa"/><rect class="cls-3" x="10.62" y="226.84" width="10.92" height="14.49"/></g><g id="a3"><use width="37.01" height="45.48" transform="translate(221.1 204.41) rotate(5.5) scale(0.36)" xlink:href="#leafb"/><rect class="cls-3" x="219.19" y="204.79" width="15.48" height="17.02"/></g><g id="a2"><use width="37.01" height="45.48" transform="matrix(0.13, -0.38, 0.38, 0.13, 189.16, 182.74)" xlink:href="#leafb"/><rect class="cls-3" x="193" y="168.59" width="16.25" height="18.79"/></g><g id="a1"><use width="37.01" height="45.48" transform="translate(46.28 250.11) rotate(-177.41) scale(0.41)" xlink:href="#leafb"/><rect class="cls-3" x="31.07" y="230.97" width="16.28" height="18.23"/></g></g><rect class="cls-3" width="300" height="600"/></svg>