<?xml version="1.0" encoding="UTF-8"?>
<svg id="vectos" xmlns="http://www.w3.org/2000/svg" width="299.96" height="1800" xmlns:xlink="http://www.w3.org/1999/xlink" viewBox="0 0 299.96 1800">
  <defs>
    <style>
      .cls-1 {
        stroke: #ffd200;
        stroke-miterlimit: 10;
        stroke-width: 1.44px;
      }

      .cls-1, .cls-2 {
        fill: none;
      }

      .cls-3 {
        fill: #ef6100;
      }

      .cls-4 {
        fill: #ed9a00;
      }

      .cls-5 {
        fill: #fff;
      }

      .cls-6 {
        fill: #263990;
      }

      .cls-7 {
        fill: #a885d8;
      }

      .cls-8 {
        clip-path: url(#clippath-2);
      }

      .cls-9 {
        fill: #4fb181;
      }

      .cls-10 {
        fill: #c19372;
      }

      .cls-11 {
        fill: #1e1f1d;
      }

      .cls-12 {
        fill: #232323;
      }

      .cls-13 {
        fill: #8e8f8f;
      }

      .cls-14 {
        fill: #d7d7d7;
      }

      .cls-15 {
        clip-path: url(#clippath-1);
      }

      .cls-16 {
        fill: #f7e200;
      }

      .cls-17 {
        fill: #e45d00;
      }

      .cls-18 {
        fill: #494847;
      }

      .cls-19 {
        fill: #5a5a5a;
      }

      .cls-20 {
        stroke: #ef6100;
        stroke-linejoin: round;
        stroke-width: 2px;
      }

      .cls-21 {
        fill: #57b7ec;
      }

      .cls-22 {
        fill: #464646;
      }

      .cls-23 {
        clip-path: url(#clippath);
      }

      .cls-24 {
        fill: #ffb400;
      }

      .cls-25 {
        fill: #f5d0b2;
      }

      .cls-26 {
        fill: #4bb3e6;
      }

      .cls-27 {
        fill: #ff7900;
      }

      .cls-28 {
        fill: #693e0f;
      }

      .cls-29 {
        fill: #b5e8f7;
      }

      .cls-30 {
        fill: #c6c8c9;
      }

      .cls-31 {
        fill: #6b5ba5;
      }

      .cls-32 {
        fill: #ffd200;
      }
    </style>
    <clipPath id="clippath-1">
      <path class="cls-13" d="M139.37,73.8c0-38.38-31.12-69.5-69.5-69.5-38.38,0-69.5,31.12-69.5,69.5,0,.01,0,.02,0,.03,.02,36.32,25.47,63.78,46.2,77.8h46.15c20.74-14.02,46.63-41.48,46.65-77.8,0-.01,0-.02,0-.03Z"/>
    </clipPath>
    <symbol id="ballonz" viewBox="0 0 139.37 203.38">
      <g id="balloon">
        <path class="cls-25" d="M84.65,161.61c-.16-1.31-3.14,.02-3.14,.02,0,0-.61,.25,.47,2.97,.81-.18,2.25-.49,2.25-.49"/>
        <polygon class="cls-19" points="85.43 181.36 83.5 180.89 91.04 150.17 92.97 150.64 85.43 181.36"/>
        <path class="cls-14" d="M74.59,184.29c.67,0,1.49-.17,2.26,0,.07-4.28-.19-10.12-.4-12.04-.26-2.4-1.47-3.05-1.47-3.05l-2.61-1.06-1.71-.04-1.71,.03-2.62,1.04s-1.21,.27-1.63,3c-.37,2.39-2,7.7-2.08,12.13l2.07-.04,9.89,.04Z"/>
        <circle class="cls-5" cx="70.7" cy="175.95" r=".16"/>
        <path class="cls-25" d="M71.99,167.35v.5c0,.72-.6,.99-1.32,.99h0c-.72,0-1.32-.27-1.31-1v-.5s2.64,.01,2.64,.01Z"/>
        <path class="cls-25" d="M75.26,161.69c-.02,3.31-2.07,5.97-4.58,5.96-2.52-.01-4.54-2.7-4.53-6.01,.02-3.31,2.06-4.92,4.58-4.9s4.55,1.64,4.53,4.95Z"/>
        <g>
          <path class="cls-25" d="M76.12,162.2c0,.72-.47,1.3-1.04,1.3s-1.03-.59-1.03-1.31,.47-1.06,1.04-1.06,1.03,.35,1.03,1.07Z"/>
          <path class="cls-25" d="M67.35,162.15c0,.72-.47,1.3-1.04,1.3s-1.03-.59-1.03-1.31,.47-1.06,1.04-1.06,1.03,.35,1.03,1.07Z"/>
        </g>
        <line class="cls-27" x1="69.62" y1="168.84" x2="71.67" y2="168.85"/>
        <path class="cls-13" d="M70.66,168.84l-1.14,1.21-.62-1.85,.45-.5s.32,.9,1.31,1.14"/>
        <path class="cls-13" d="M70.67,168.84l1.13,1.22,.64-1.83-.45-.51s-.33,.9-1.32,1.13"/>
        <path class="cls-11" d="M68.63,161.54c0,.22-.18,.41-.41,.41s-.41-.18-.41-.41,.18-.41,.41-.41,.41,.18,.41,.41Z"/>
        <path class="cls-11" d="M73.58,161.57c0,.22-.18,.41-.41,.41s-.41-.18-.41-.41,.18-.41,.41-.41,.41,.18,.41,.41Z"/>
        <path class="cls-5" d="M71.92,164.79s-.67,1.03-1.26,1.03-1.25-1.04-1.25-1.04h2.5Z"/>
        <path class="cls-28" d="M70.73,155.5c-2.74-.01-4.54,1.98-4.56,5.58l.27-.81s1.06-.75,2.62-1.38l-.23,.71s3.2-1.64,5.06-1.51l1.36,3.07c.02-3.6-1.79-5.65-4.53-5.67Z"/>
        <path class="cls-10" d="M71.19,163.21h-1.14c-.1,0-.18-.05-.23-.12-.04,.17,.08,.35,.27,.35h1.08c.19,0,.32-.17,.27-.35-.05,.07-.14,.12-.24,.12Z"/>
        <circle class="cls-13" cx="72.75" cy="161.74" r=".71"/>
        <polygon class="cls-7" points="95.43 152.46 72.53 161.37 72.65 161.78 72.77 162.19 96.71 158.69 95.43 152.46"/>
        <path class="cls-13" d="M86.07,156.1l-8.66,3.37c.02,.59,.28,1.46,.53,1.96l9.25-1.35c-.49-.97-1.05-2.75-1.11-3.98Z"/>
        <g>
          <path class="cls-13" d="M96.71,158.69c.74-.34,1.03-1.85,.71-3.39-.32-1.54-1.17-2.82-1.99-2.84-.93-.03-1.45,1.52-1.06,3.47,.4,1.94,1.5,3.16,2.34,2.77Z"/>
          <path class="cls-26" d="M96.6,158.16c.63-.26,.88-1.52,.61-2.82-.27-1.3-.99-2.36-1.67-2.35-.76,0-1.17,1.29-.85,2.87,.32,1.58,1.21,2.6,1.91,2.31h0Z"/>
        </g>
        <path class="cls-14" d="M84.28,164.04l-2.25,.49c-.59,.75,.15,5.04-.51,5.34-2.58,1.15-4.94-.65-6.54-.68l-.88,4.29c.26,0,6.28,.35,9.59-1.72l.58-7.73Z"/>
        <path class="cls-7" d="M80.62,160.66l.43-.07,.23,1.49c0,.05,.05,.08,.08,.1,.05,.03,.12,.04,.18,.03l3.11-.48c.06,0,.11-.04,.14-.08,.03-.04,.04-.08,.04-.13l-.23-1.49,.43-.07,.23,1.49c.05,.34-.19,.65-.54,.7l-3.11,.48c-.16,.02-.33,0-.47-.09-.16-.09-.26-.24-.29-.41l-.23-1.49Z"/>
        <circle class="cls-7" cx="72.78" cy="161.74" r=".44"/>
        <path class="cls-11" d="M96.34,155.49c.09,.32-.01,.63-.23,.69s-.47-.15-.56-.47,.01-.63,.23-.69,.47,.15,.56,.47Z"/>
        <polygon class="cls-19" points="53.57 181.36 46.03 150.64 47.96 150.17 55.5 180.89 53.57 181.36"/>
        <path class="cls-27" d="M70.41,175.97h-18.18l5.46,23.7c.5,2.17,2.43,3.71,4.66,3.71h15.14c2.76,0,5.11-2,5.56-4.72l3.71-22.69h-16.35Z"/>
        <g>
          <path class="cls-13" d="M139.37,73.8c0-38.38-31.12-69.5-69.5-69.5-38.38,0-69.5,31.12-69.5,69.5,0,.01,0,.02,0,.03,.02,36.32,25.47,63.78,46.2,77.8h46.15c20.74-14.02,46.63-41.48,46.65-77.8,0-.01,0-.02,0-.03Z"/>
          <g class="cls-15">
            <path class="cls-27" d="M139.37,73.8c0-38.38-31.12-69.5-69.5-69.5S.38,35.42,.38,73.8c0,.01,0,.02,0,.03,.02,36.32,25.47,63.78,46.2,77.8h46.59c20.74-14.02,46.19-41.48,46.2-77.8,0-.01,0-.02,0-.03Z"/>
            <path class="cls-5" d="M0,73.8"/>
            <g>
              <path class="cls-24" d="M69.47,0s-109.74,52.6,0,162.34V0Z"/>
              <path class="cls-24" d="M69.53,0s109.74,52.6,0,162.34V0Z"/>
              <path class="cls-27" d="M69.47,0s-40.41,61.17,0,162.34C110.93,59.68,69.47,0,69.47,0Z"/>
            </g>
          </g>
        </g>
        <polygon class="cls-24" points="84.98 186.9 54.75 186.9 53.59 181.86 85.91 181.86 84.98 186.9"/>
        <polygon class="cls-24" points="83.13 198.17 57.35 198.17 56.19 193.13 83.95 193.13 83.13 198.17"/>
        <circle class="cls-5" cx="69.87" cy="189.68" r="10.22"/>
        <g>
          <path class="cls-27" d="M62,188.82c.24,0,.42,.05,.56,.16s.21,.26,.21,.46h-.41c0-.1-.04-.17-.1-.22-.06-.05-.15-.07-.28-.07-.09,0-.16,.02-.21,.06-.05,.04-.08,.09-.08,.16,0,.06,.02,.1,.05,.12,.03,.03,.08,.05,.14,.07,.06,.02,.17,.05,.32,.09,.16,.04,.28,.08,.37,.13s.15,.11,.2,.18c.04,.07,.07,.16,.07,.27,0,.12-.03,.23-.1,.33-.07,.1-.16,.17-.28,.22-.12,.05-.27,.07-.42,.07-.24,0-.44-.06-.59-.18s-.23-.29-.23-.49h0s.41-.01,.41-.01c0,.11,.04,.2,.12,.26,.08,.06,.18,.09,.31,.09,.11,0,.21-.02,.27-.06,.07-.04,.1-.1,.1-.18,0-.05-.02-.1-.06-.13s-.09-.07-.15-.09c-.06-.02-.17-.05-.32-.08-.17-.04-.3-.09-.38-.14-.08-.05-.14-.11-.18-.18-.04-.07-.06-.15-.06-.25,0-.12,.04-.23,.1-.32,.07-.09,.16-.16,.27-.2,.11-.04,.23-.06,.35-.06Z"/>
          <path class="cls-27" d="M63.48,188.98v.42h.28v.26h-.28v.69c0,.06,.01,.11,.03,.13s.06,.03,.13,.03c.05,0,.09,0,.12-.01v.3c-.05,0-.13,.01-.23,.01-.15,0-.26-.03-.33-.08s-.11-.14-.11-.26v-.82h-.23v-.26h.23v-.42h.38Z"/>
          <path class="cls-27" d="M64.71,189.37s.06,0,.08,.01v.36s-.09-.01-.14-.01c-.25,0-.38,.15-.38,.45v.63h-.38v-1.4h.37v.26h0c.04-.09,.1-.16,.18-.22,.08-.05,.17-.08,.27-.08Z"/>
          <path class="cls-27" d="M65.49,189.37c.41,0,.61,.13,.61,.4v.74c0,.14,.02,.24,.05,.3h-.39s-.02-.09-.03-.14c-.11,.12-.27,.17-.47,.17-.15,0-.26-.04-.35-.11-.08-.07-.13-.18-.13-.31s.04-.23,.12-.3c.08-.07,.23-.12,.45-.14,.16-.02,.25-.04,.3-.06,.04-.02,.06-.06,.06-.11,0-.06-.02-.11-.06-.14-.04-.03-.1-.05-.19-.05-.08,0-.14,.02-.18,.05-.04,.03-.07,.09-.07,.16h-.38c0-.15,.07-.27,.19-.35s.27-.12,.47-.12Zm-.32,1.04c0,.12,.08,.18,.24,.18,.21,0,.31-.11,.31-.32v-.15s-.11,.05-.23,.07c-.11,.01-.19,.04-.24,.07s-.08,.08-.08,.15Z"/>
          <path class="cls-27" d="M66.83,188.98v.42h.28v.26h-.28v.69c0,.06,.01,.11,.03,.13s.06,.03,.13,.03c.05,0,.09,0,.12-.01v.3c-.05,0-.13,.01-.23,.01-.15,0-.26-.03-.33-.08s-.11-.14-.11-.26v-.82h-.23v-.26h.23v-.42h.38Z"/>
          <path class="cls-27" d="M67.88,189.37c.13,0,.25,.03,.35,.09,.1,.06,.18,.15,.24,.27,.06,.12,.09,.25,.09,.4,0,.01,0,.04,0,.07h-1.01c0,.11,.03,.2,.09,.26,.05,.06,.14,.09,.25,.09,.07,0,.13-.02,.19-.05,.06-.04,.1-.08,.11-.13h.34c-.1,.31-.32,.47-.66,.47-.13,0-.25-.03-.36-.08-.11-.05-.2-.14-.26-.25-.06-.12-.1-.25-.1-.4,0-.14,.03-.27,.1-.39,.07-.12,.15-.21,.26-.26,.11-.06,.23-.09,.35-.09Zm.29,.59c-.02-.11-.05-.18-.1-.23s-.12-.07-.21-.07-.17,.03-.22,.08c-.05,.05-.09,.13-.09,.22h.62Z"/>
          <path class="cls-27" d="M69.29,189.37c.19,0,.33,.08,.42,.22h0v-.19h.37v1.31c0,.2-.06,.36-.19,.46-.13,.1-.3,.16-.54,.16-.18,0-.32-.04-.44-.13-.12-.08-.18-.19-.18-.32h.38c.03,.13,.13,.19,.29,.19,.1,0,.18-.03,.23-.09,.05-.06,.08-.14,.08-.25v-.19h0c-.04,.07-.09,.12-.17,.16s-.16,.06-.25,.06c-.19,0-.33-.06-.44-.18-.11-.12-.16-.3-.16-.52,0-.2,.06-.36,.17-.5,.11-.13,.26-.2,.43-.2Zm-.22,.69c0,.13,.03,.23,.08,.31,.05,.07,.13,.11,.23,.11s.18-.04,.24-.11,.09-.17,.09-.28c0-.14-.03-.25-.08-.32-.06-.07-.14-.11-.25-.11-.1,0-.18,.04-.23,.11-.05,.07-.08,.17-.08,.29Z"/>
          <path class="cls-27" d="M70.58,189.4l.32,.96h0l.31-.96h.4l-.58,1.58c-.04,.11-.1,.19-.17,.24-.07,.05-.17,.08-.3,.08-.06,0-.14,0-.24-.01v-.32c.07,0,.14,.01,.2,.01,.05,0,.1-.02,.13-.05,.03-.03,.04-.08,.04-.13,0-.03,0-.06-.02-.09l-.49-1.31h.41Z"/>
          <path class="cls-27" d="M73.08,188.85c.15,0,.28,.04,.38,.12,.1,.08,.15,.2,.15,.34,0,.2-.12,.36-.34,.48l.25,.31c.04-.06,.06-.14,.07-.23h.33c-.02,.18-.08,.34-.19,.48l.39,.46h-.47l-.16-.19c-.16,.15-.34,.23-.54,.23-.19,0-.34-.05-.45-.16-.12-.11-.17-.25-.17-.42,0-.24,.14-.42,.43-.56-.07-.08-.12-.16-.15-.22-.03-.06-.04-.13-.04-.19,0-.13,.05-.23,.15-.32,.1-.08,.22-.12,.36-.12Zm-.39,1.42c0,.07,.03,.13,.08,.18s.12,.07,.19,.07c.12,0,.22-.06,.32-.17l-.33-.4c-.18,.08-.27,.18-.27,.32Zm.23-.99s.01,.09,.03,.13c.02,.04,.06,.1,.12,.16,.07-.04,.12-.08,.15-.12,.03-.04,.05-.09,.05-.15,0-.05-.02-.09-.05-.13s-.08-.05-.13-.05c-.04,0-.08,.02-.12,.05s-.05,.07-.05,.12Z"/>
          <path class="cls-27" d="M75.78,188.82c.23,0,.42,.06,.57,.19,.15,.13,.24,.3,.27,.5h-.41c-.01-.1-.06-.18-.14-.24-.08-.06-.17-.1-.28-.1-.17,0-.29,.06-.39,.18-.09,.12-.14,.28-.14,.49s.05,.36,.14,.47c.09,.12,.22,.17,.39,.17,.12,0,.22-.04,.3-.11,.08-.07,.12-.18,.14-.32h.41c-.02,.25-.11,.44-.26,.58s-.35,.21-.59,.21c-.28,0-.51-.09-.69-.28s-.26-.43-.26-.72,.09-.54,.26-.74c.17-.19,.4-.29,.69-.29Z"/>
          <path class="cls-27" d="M77.51,189.37c.22,0,.4,.07,.53,.2,.13,.14,.19,.31,.19,.54s-.07,.4-.2,.53c-.13,.13-.31,.2-.53,.2s-.4-.07-.53-.2c-.13-.14-.2-.31-.2-.53s.07-.41,.2-.54,.31-.2,.52-.2Zm-.34,.74c0,.14,.03,.25,.09,.33s.14,.12,.25,.12,.2-.04,.26-.12c.06-.08,.09-.19,.09-.33s-.03-.26-.09-.33c-.06-.08-.14-.12-.26-.12s-.19,.04-.25,.12c-.06,.08-.09,.19-.09,.33Z"/>
        </g>
        <circle class="cls-5" cx="70.67" cy="169.47" r=".16"/>
        <circle class="cls-5" cx="70.71" cy="170.51" r=".16"/>
        <circle class="cls-5" cx="70.7" cy="171.48" r=".16"/>
        <circle class="cls-5" cx="70.7" cy="172.41" r=".16"/>
        <circle class="cls-5" cx="70.7" cy="173.32" r=".16"/>
        <circle class="cls-5" cx="70.71" cy="174.18" r=".16"/>
        <circle class="cls-5" cx="70.71" cy="175.06" r=".16"/>
        <path class="cls-32" d="M88.4,181.37l-3.04-3.13h0s0,0,0,0h0s0,0,0,0l-3.13,3.04c-.87,.8-1.43,1.95-1.45,3.23-.04,2.47,1.94,4.51,4.41,4.55h0c2.47,.04,4.51-1.94,4.55-4.41,.02-1.28-.5-2.44-1.34-3.27Z"/>
        <path class="cls-32" d="M57.05,181l-3.04-3.13h0s0,0,0,0h0s0,0,0,0l-3.13,3.04c-.87,.8-1.43,1.95-1.45,3.23-.04,2.47,1.94,4.51,4.41,4.55h0c2.47,.04,4.51-1.94,4.55-4.41,.02-1.28-.5-2.44-1.34-3.27Z"/>
        <path class="cls-32" d="M85,177.97l.39,.37h0s.37-.39,.37-.39c.1-.1,.16-.25,.16-.4,0-.3-.26-.54-.56-.53h0c-.3,0-.54,.26-.53,.56,0,.16,.07,.3,.18,.39Z"/>
        <path class="cls-32" d="M53.65,177.74l.39,.37h0s.37-.39,.37-.39c.1-.1,.16-.25,.16-.4,0-.3-.26-.54-.56-.53h0c-.3,0-.54,.26-.53,.56,0,.16,.07,.3,.18,.39Z"/>
        <path class="cls-32" d="M72.57,180.85l-2.67-2.76h0s0,0,0,0h0s0,0,0,0l-2.76,2.67c-.77,.71-1.26,1.71-1.27,2.84-.03,2.18,1.7,3.97,3.88,4.01h0c2.18,.03,3.97-1.7,4.01-3.88,.02-1.13-.44-2.15-1.18-2.88Z"/>
        <path class="cls-32" d="M69.57,177.85l.34,.32h0s.32-.34,.32-.34c.09-.09,.14-.22,.14-.35,0-.27-.23-.48-.5-.47h0c-.27,0-.48,.23-.47,.5,0,.14,.06,.26,.16,.35Z"/>
        <polygon class="cls-32" points="46.03 151.64 35.13 143.34 104.47 143.34 93.17 151.64 46.03 151.64"/>
        <path class="cls-1" d="M54.02,177.33s7.39,4.86,15.9,.11"/>
        <path class="cls-1" d="M69.62,177.33s7.53,4.86,16.2,.11"/>
        <path class="cls-13" d="M81.87,164.54l2.5-.54s0,1.26-.08,1.26-2.56,.57-2.56,.57l.14-1.29Z"/>
        <path class="cls-25" d="M81.58,161.96c.13,.94,.1,.72,.1,.72,0,0,.05,.9,.71,.84,1.16-.12,2.41-2.17,1.93-2.33s-2.87-.16-2.74,.78Z"/>
        <path class="cls-25" d="M66.03,175.99c.08,1.15,.06,.88,.06,.88,0,0,.16,1.08-.63,1.17-1.41,.15-3.4-1.98-2.87-2.29s3.37-.91,3.45,.24Z"/>
      </g>
    </symbol>
    <symbol id="cloud" viewBox="0 0 135.33 40.35">
      <path class="cls-5" d="M126.83,20.6c-.1-4.71-3.94-8.5-8.68-8.5-2.49,0-4.72,1.05-6.31,2.72-1.85-5.55-7.07-9.55-13.25-9.55-3.46,0-6.63,1.27-9.07,3.36-3.58-5.21-9.58-8.64-16.38-8.64-9.72,0-17.8,6.99-19.52,16.21-1.28-1.92-3.46-3.18-5.94-3.18-1.88,0-3.58,.73-4.86,1.92-1.61-5.76-6.87-9.99-13.15-9.99-6.77,0-12.38,4.93-13.45,11.4-.88-.52-1.9-.84-3-.84-3.05,0-5.54,2.33-5.84,5.3C3.15,21.94,0,25.81,0,30.42c0,5.48,4.45,9.93,9.93,9.93H125.4c5.48,0,9.93-4.45,9.93-9.93,0-5-3.69-9.12-8.5-9.82Z"/>
    </symbol>
    <symbol id="stars1" viewBox="0 0 22.3 22.3">
      <g>
        <path class="cls-30" d="M11.15,8.6c-.57,0-1.03-.46-1.03-1.03V1.03c0-.57,.46-1.03,1.03-1.03,.56,.01,1.02,.46,1.03,1.03V7.58c0,.57-.46,1.03-1.03,1.03Z"/>
        <path class="cls-30" d="M11.15,22.3c-.57,0-1.03-.46-1.03-1.03v-6.55c0-.57,.46-1.03,1.03-1.03s1.03,.46,1.03,1.03v6.65c-.06,.52-.5,.92-1.03,.92Z"/>
        <path class="cls-30" d="M21.27,12.17h-6.57c-.57,0-1.03-.46-1.03-1.03s.46-1.03,1.03-1.03h6.57c.57,0,1.03,.46,1.03,1.03s-.46,1.03-1.03,1.03Z"/>
        <path class="cls-30" d="M7.58,12.17H1.03c-.57,0-1.03-.46-1.03-1.03s.46-1.03,1.03-1.03H7.58c.57,0,1.03,.46,1.03,1.03s-.46,1.03-1.03,1.03Z"/>
      </g>
    </symbol>
    <symbol id="stars2" viewBox="0 0 16.75 16.75">
      <polygon class="cls-30" points="8.37 0 10.05 6.7 16.75 8.38 10.05 10.05 8.37 16.75 6.7 10.05 0 8.38 6.7 6.7 8.37 0"/>
    </symbol>
    <symbol id="stars3" viewBox="0 0 26.16 26.11">
      <path class="cls-30" d="M13.99,26.11c-1.09,0-2.07-.63-2.51-1.63l-2.51-5.51c-.19-.41-.55-.71-.98-.82l-5.89-1.47c-1.49-.37-2.39-1.88-2.01-3.37,.21-.81,.77-1.49,1.53-1.84l5.5-2.51c.41-.18,.7-.54,.81-.98l1.47-5.89c.37-1.49,1.88-2.39,3.37-2.01,.81,.21,1.49,.77,1.84,1.53l2.53,5.52c.18,.41,.54,.71,.98,.82l5.94,1.47c1.48,.36,2.39,1.85,2.04,3.33-.2,.84-.78,1.53-1.57,1.88l-5.52,2.53c-.41,.18-.71,.54-.81,.98l-1.47,5.89c-.28,1.15-1.26,1.99-2.44,2.08h-.29ZM12.11,1.3h-.14c-.63,.05-1.15,.5-1.3,1.11l-1.47,5.89c-.2,.82-.77,1.5-1.54,1.85l-5.5,2.54c-.57,.25-.92,.85-.86,1.47,.04,.63,.49,1.16,1.11,1.3l5.89,1.47c.82,.2,1.5,.77,1.85,1.54l2.51,5.52c.34,.74,1.22,1.06,1.96,.71,.4-.19,.7-.54,.81-.97l1.47-5.87c.2-.82,.77-1.5,1.54-1.85l5.52-2.53c.57-.25,.92-.84,.85-1.46-.04-.63-.49-1.16-1.11-1.3l-5.89-1.48c-.82-.19-1.49-.76-1.84-1.52l-2.53-5.52h0c-.22-.54-.74-.89-1.33-.89Z"/>
    </symbol>
    <clipPath id="clippath">
      <rect id="mask" class="cls-2" x="105.56" y="1554.8" width="87.15" height="39.48" transform="translate(-1425.96 1717.67) rotate(-89.78)"/>
    </clipPath>
    <clipPath id="clippath-2">
      <rect id="mask-2" data-name="mask" class="cls-2" x="104.97" y="1333.35" width="84.7" height="75.87" transform="translate(-1.88 .2) rotate(-.08)"/>
    </clipPath>
  </defs>
  <g id="_300x600" data-name="300x600">
    <g id="screens">
      <g id="scr03">
        <g id="star3">
          <use width="26.16" height="26.11" transform="translate(32.85 122.06)" xlink:href="#stars3"/>
          <rect class="cls-2" x="32.85" y="122.06" width="26.11" height="26.11"/>
        </g>
        <g id="star3-2" data-name="star3">
          <use width="26.16" height="26.11" transform="translate(232.65 405.76) scale(.74)" xlink:href="#stars3"/>
          <rect class="cls-2" x="232.65" y="405.76" width="19.28" height="19.28"/>
        </g>
        <g id="star2">
          <use width="16.75" height="16.75" transform="translate(33.54 250.59) scale(1.13)" xlink:href="#stars2"/>
          <rect class="cls-2" x="33.54" y="250.59" width="18.8" height="18.8"/>
        </g>
        <g id="star2-2" data-name="star2">
          <use width="16.75" height="16.75" transform="translate(71.38 321.44) scale(1.13)" xlink:href="#stars2"/>
          <rect class="cls-2" x="71.38" y="321.44" width="18.8" height="18.8"/>
        </g>
        <g id="star2-3" data-name="star2">
          <use width="16.75" height="16.75" transform="translate(253.57 319.24) scale(1.13)" xlink:href="#stars2"/>
          <rect class="cls-2" x="253.57" y="319.24" width="18.8" height="18.8"/>
        </g>
        <g id="star2-4" data-name="star2">
          <use width="16.75" height="16.75" transform="translate(80.93 442.28) scale(2)" xlink:href="#stars2"/>
          <rect class="cls-2" x="80.93" y="442.28" width="33.26" height="33.26"/>
        </g>
        <g id="star1">
          <use width="22.3" height="22.3" transform="translate(253.34 561.38) scale(.63)" xlink:href="#stars1"/>
          <rect class="cls-2" x="253.42" y="561.4" width="13.98" height="13.98"/>
        </g>
        <g id="clouds31">
          <use width="135.33" height="40.35" transform="translate(-76.26 418.09)" xlink:href="#cloud"/>
          <rect class="cls-2" x="-76.26" y="417.27" width="135.33" height="41.73"/>
        </g>
        <g id="sat">
          <g>
            <polygon class="cls-27" points="294.41 139.62 287.92 145.02 291.5 145.81 298.6 140.53 294.41 139.62"/>
            <polygon class="cls-19" points="298.6 140.53 291.5 145.81 293.37 146.22 300.91 141.04 298.6 140.53"/>
            <polygon class="cls-27" points="305.4 142.01 300.91 141.04 293.37 146.22 296.81 146.97 305.4 142.01"/>
          </g>
          <polygon class="cls-27" points="309.08 142.75 299.79 147.56 303.48 148.37 313.66 143.73 309.08 142.75"/>
          <polygon class="cls-14" points="294.99 140.94 292.83 154.32 296.29 155.06 298.34 141.66 294.99 140.94"/>
          <polygon class="cls-13" points="295.22 137.85 294.77 140.61 314.85 145.37 315.34 142.14 295.22 137.85"/>
          <polygon class="cls-27" points="307.69 130.08 295.95 139.48 300.64 140.5 313.76 131.39 307.69 130.08"/>
          <g>
            <polygon class="cls-27" points="230.61 125.69 236.35 133.77 239.74 134.51 235.11 126.67 230.61 125.69"/>
            <polygon class="cls-27" points="245.23 135.7 241.59 128.09 237.41 127.17 241.68 134.93 245.23 135.7"/>
            <polygon class="cls-19" points="237.41 127.17 235.11 126.67 239.74 134.51 241.68 134.93 237.41 127.17"/>
          </g>
          <g>
            <polygon class="cls-27" points="233.4 133.07 226.95 124.82 222.4 123.8 229.7 132.26 233.4 133.07"/>
            <polygon class="cls-27" points="215.96 122.37 224.49 131.12 228.11 131.91 220.26 123.33 215.96 122.37"/>
            <polygon class="cls-19" points="222.4 123.8 220.26 123.33 228.11 131.91 229.7 132.26 222.4 123.8"/>
          </g>
          <polygon class="cls-14" points="240.52 129.05 236.9 142.11 233.45 141.34 237.17 128.3 240.52 129.05"/>
          <polygon class="cls-14" points="225.45 125.67 221.45 138.67 218.03 137.92 222.06 125.01 225.45 125.67"/>
          <polygon class="cls-13" points="241.6 126.14 240.85 128.83 220.62 124.79 221.52 121.65 241.6 126.14"/>
          <polygon class="cls-13" points="294.52 137.39 288.27 136.03 288.31 135.78 248.13 127.01 248.07 127.25 242.43 126.02 241.56 130 247.2 131.24 247.17 131.4 287.54 140.21 287.57 140.05 293.65 141.38 294.52 137.39"/>
          <g>
            <polygon class="cls-27" points="224.83 123.87 212.97 109.27 207.06 107.97 220.08 122.83 224.83 123.87"/>
            <polygon class="cls-27" points="197.51 105.87 213.23 121.33 217.82 122.34 203.74 107.24 197.51 105.87"/>
            <polygon class="cls-19" points="207.06 107.97 203.74 107.24 217.82 122.34 220.08 122.83 207.06 107.97"/>
          </g>
          <path class="cls-14" d="M270.82,132.29c-.79,3.56-6.21,2.37-5.45-1.19,.84-3.56,6.17-2.4,5.45,1.19Z"/>
          <path class="cls-14" d="M266.77,125.62c.03,1.91-1.72,4.96,1.46,5.95,3.32,.43,3.04-3.16,3.9-4.9l-5.36-1.05Z"/>
          <g>
            <polygon class="cls-27" points="218.09 110.49 228.68 124.78 233.19 125.77 224.39 111.88 218.09 110.49"/>
            <polygon class="cls-19" points="227.47 112.55 224.39 111.88 233.19 125.77 235.56 126.29 227.47 112.55"/>
            <polygon class="cls-27" points="240.26 127.32 233.5 113.88 227.47 112.55 235.56 126.29 240.26 127.32"/>
          </g>
          <g>
            <rect class="cls-13" x="277.36" y="135.35" width="10.37" height="3.02" transform="translate(88.56 383.71) rotate(-77.68)"/>
            <polygon class="cls-14" points="282.31 138.41 281.59 141.9 286.1 137.1 287.02 132.92 282.31 138.41"/>
            <polygon class="cls-14" points="287.95 128.32 287.16 132.23 282.37 138.18 283.09 134.95 287.95 128.32"/>
            <polygon class="cls-14" points="283.13 134.77 283.89 131.58 289.03 123.64 288.11 127.62 283.13 134.77"/>
          </g>
          <g>
            <rect class="cls-13" x="248.34" y="129.02" width="10.37" height="3.02" transform="translate(71.92 350.37) rotate(-77.68)"/>
            <polygon class="cls-14" points="253.09 132.03 252.3 135.5 250.2 129.26 251.11 125.08 253.09 132.03"/>
            <polygon class="cls-14" points="252.17 120.51 251.26 124.39 253.14 131.8 253.83 128.56 252.17 120.51"/>
            <polygon class="cls-14" points="253.87 128.38 254.5 125.16 253.15 115.8 252.32 119.8 253.87 128.38"/>
          </g>
          <path class="cls-13" d="M267.11,122.39l-.43,3.52s.52,1.72,2.32,2.12,3-.95,3-.95l1.16-3.5-6.06-1.19Z"/>
          <rect class="cls-14" x="257.6" y="134.79" width="4.15" height="8.67" transform="translate(68.36 363.14) rotate(-77.68)"/>
          <rect class="cls-14" x="269.37" y="138.93" width="4.17" height="5.42" transform="translate(75.17 376.64) rotate(-77.68)"/>
          <path class="cls-14" d="M268.32,141.11c-.61,2.75-4.79,1.83-4.2-.92,.61-2.74,4.79-1.83,4.2,.92Z"/>
          <path class="cls-14" d="M269.51,137.62c-.73,3.28-5.72,2.19-5.02-1.1,.78-3.28,5.68-2.22,5.02,1.1Z"/>
          <path class="cls-14" d="M273.18,123.54c-.89,3.78-6.81,2.48-6.05-1.32,.89-3.78,6.81-2.49,6.05,1.32Z"/>
          <g>
            <polygon class="cls-29" points="255.93 114.84 256.89 113.52 265.97 119.41 265.01 120.75 255.93 114.84"/>
            <polygon class="cls-29" points="275.31 121.39 275.64 123.01 286.4 121.29 286.04 119.71 275.31 121.39"/>
            <polygon class="cls-29" points="253.61 124.32 253.88 125.95 264.9 124.19 264.6 122.58 253.61 124.32"/>
            <polygon class="cls-29" points="274.33 126.2 275.27 124.84 284.63 130.92 283.72 132.3 274.33 126.2"/>
          </g>
          <polygon class="cls-26" points="267.47 121.37 265.46 120.13 265.55 120 267.55 121.23 267.47 121.37"/>
          <polygon class="cls-26" points="273.23 122.62 273.21 122.47 275.48 122.17 275.5 122.33 273.23 122.62"/>
          <rect class="cls-26" x="273.72" y="123.8" width=".16" height="2.3" transform="translate(18.19 283.82) rotate(-56.39)"/>
          <polygon class="cls-26" points="264.78 123.52 264.76 123.36 267.07 123.04 267.09 123.19 264.78 123.52"/>
        </g>
        <rect class="cls-2" x="0" y="0" width="300" height="600"/>
      </g>
      <g id="scr02">
        <g id="clouds22">
          <use width="135.33" height="40.35" transform="translate(-77.06 684.4)" xlink:href="#cloud"/>
          <rect class="cls-2" x="-77.06" y="683.58" width="135.33" height="41.73"/>
        </g>
        <g id="clouds21">
          <use width="135.33" height="40.35" transform="translate(257 1121.44) scale(.57)" xlink:href="#cloud"/>
          <rect class="cls-2" x="257" y="1120.97" width="77.1" height="23.78"/>
        </g>
        <g id="star3-3" data-name="star3">
          <use width="26.16" height="26.11" transform="translate(45.88 984.2)" xlink:href="#stars3"/>
          <rect class="cls-2" x="45.88" y="984.2" width="26.11" height="26.11"/>
        </g>
        <g id="star3-4" data-name="star3">
          <use width="26.16" height="26.11" transform="translate(240.71 1167.63) scale(.74)" xlink:href="#stars3"/>
          <rect class="cls-2" x="240.71" y="1167.63" width="19.38" height="19.38"/>
        </g>
        <g id="star2-5" data-name="star2">
          <use width="16.75" height="16.75" transform="translate(209.76 1026.06) scale(.96)" xlink:href="#stars2"/>
          <rect class="cls-2" x="209.76" y="1026.06" width="16.05" height="16.05"/>
        </g>
        <g id="star2-6" data-name="star2">
          <use width="16.75" height="16.75" transform="translate(223.78 734.04) scale(.96)" xlink:href="#stars2"/>
          <rect class="cls-2" x="223.78" y="734.04" width="16.05" height="16.05"/>
        </g>
        <g id="star2-7" data-name="star2">
          <use width="16.75" height="16.75" transform="translate(108.86 723.58) scale(.96)" xlink:href="#stars2"/>
          <rect class="cls-2" x="108.86" y="723.58" width="16.05" height="16.05"/>
        </g>
        <g id="star1-2" data-name="star1">
          <use width="22.3" height="22.3" transform="translate(241.08 867.04) scale(.67)" xlink:href="#stars1"/>
          <rect class="cls-2" x="241.16" y="867.07" width="14.67" height="14.67"/>
        </g>
        <circle class="cls-27" cx="46.77" cy="775.1" r="8.5"/>
        <rect class="cls-2" x="0" y="600" width="300" height="600"/>
      </g>
      <g id="scr01">
        <g id="star3-5" data-name="star3">
          <use width="26.16" height="26.11" transform="translate(45.97 1369.59)" xlink:href="#stars3"/>
          <rect class="cls-2" x="45.97" y="1369.59" width="26.11" height="26.11"/>
        </g>
        <g id="star3-6" data-name="star3">
          <use width="26.16" height="26.11" transform="translate(240.42 1538.34) scale(.73)" xlink:href="#stars3"/>
          <rect class="cls-2" x="240.42" y="1538.34" width="19.16" height="19.16"/>
        </g>
        <g id="star2-8" data-name="star2">
          <use width="16.75" height="16.75" transform="translate(215.88 1387) scale(1.09)" xlink:href="#stars2"/>
          <rect class="cls-2" x="215.88" y="1387" width="18.16" height="18.16"/>
        </g>
        <g id="star1-3" data-name="star1">
          <use width="22.3" height="22.3" transform="translate(252.94 1329.71) scale(.67)" xlink:href="#stars1"/>
          <rect class="cls-2" x="253.02" y="1329.73" width="14.67" height="14.67"/>
        </g>
        <g id="star2-9" data-name="star2">
          <use width="16.75" height="16.75" transform="translate(50.67 1625.24) scale(1.03)" xlink:href="#stars2"/>
          <rect class="cls-2" x="50.67" y="1625.24" width="17.17" height="17.17"/>
        </g>
        <g id="clouds12">
          <use width="135.33" height="40.35" transform="translate(-80.88 1442.36) scale(1.16)" xlink:href="#cloud"/>
          <rect class="cls-2" x="-80.88" y="1441.41" width="156.72" height="48.33"/>
        </g>
        <g id="clouds11">
          <use width="135.33" height="40.35" transform="translate(256.71 1375.03) scale(.58)" xlink:href="#cloud"/>
          <rect class="cls-2" x="256.71" y="1374.55" width="78.15" height="24.1"/>
        </g>
        <rect class="cls-2" x="-.15" y="1200" width="300" height="600"/>
      </g>
    </g>
    <g id="balloons">
      <g id="alltubes">
        <g class="cls-23">
          <g id="tubes">
            <g>
              <rect id="b1" class="cls-31" x="161.73" y="1527.98" width="2.66" height="85.09" transform="translate(436.87 3125.58) rotate(175.94)"/>
              <rect class="cls-2" x="160.23" y="1529.95" width="5.69" height="83.28" transform="translate(436.96 3127.69) rotate(175.94)"/>
            </g>
            <g>
              <rect id="b2" class="cls-6" x="155.98" y="1523.72" width="2.66" height="82.49" transform="translate(373.29 3122.91) rotate(177.85)"/>
              <rect class="cls-2" x="154.7" y="1523.81" width="5.23" height="82.43" transform="translate(373.29 3123.04) rotate(177.85)"/>
            </g>
            <g>
              <rect id="b3" class="cls-21" x="151.58" y="1514.43" width="2.66" height="82.49" transform="translate(319.64 3109.92) rotate(179.49)"/>
              <rect class="cls-2" x="149.87" y="1514.48" width="6.08" height="82.43" transform="translate(319.64 3109.97) rotate(179.49)"/>
            </g>
            <g>
              <rect id="b4" class="cls-9" x="147.3" y="1528.53" width="2.66" height="87.89" transform="translate(291.27 3145.5) rotate(-179.78)"/>
              <rect class="cls-2" x="145.7" y="1534" width="5.2" height="82.41" transform="translate(290.6 3150.97) rotate(-179.78)"/>
            </g>
            <g>
              <rect id="b5" class="cls-16" x="143.28" y="1512.06" width="2.66" height="82.49" transform="translate(254.5 3109.44) rotate(-178.72)"/>
              <rect class="cls-2" x="142.24" y="1511.89" width="4.76" height="82.76" transform="translate(254.5 3109.38) rotate(-178.72)"/>
            </g>
            <g>
              <rect id="b6" class="cls-4" x="138.66" y="1525.34" width="2.66" height="86.48" transform="translate(181.37 3142.84) rotate(-176.41)"/>
              <rect class="cls-2" x="137.48" y="1525.34" width="5.03" height="86.47" transform="translate(181.37 3142.84) rotate(-176.41)"/>
            </g>
            <g>
              <rect id="b7" class="cls-3" x="133.7" y="1518.51" width="2.66" height="82.49" transform="translate(141.75 3125.33) rotate(-175.3)"/>
              <rect class="cls-2" x="132.24" y="1518.71" width="5.58" height="82.21" transform="translate(141.73 3125.46) rotate(-175.3)"/>
            </g>
          </g>
        </g>
      </g>
      <g id="ballon">
        <use width="139.37" height="203.38" transform="translate(78.62 1331.62)" xlink:href="#ballonz"/>
        <rect class="cls-2" x="79" y="1331.87" width="139" height="284.55"/>
      </g>
    </g>
    <g id="pigeons">
      <g id="pigeon2">
        <path class="cls-14" d="M220.76,1556.71c13.97-7.27,15.41-16.11,19.71-17.85,1.52-.61,6.48-.57,6.48-.57,0,0-3.27,3.67-5.05,3.4l.81,.45c-.34,2.22,1.41,5.81-2.99,9.3-4.4,3.49-18.96,5.28-18.96,5.28Z"/>
        <g id="wing21">
          <path class="cls-19" d="M218.12,1550.28c1.6-1.35,7.87-6.65,11.68-6.77,3.81-.12,7.74,4.06,5.04,5.29-2.7,1.23-2.87,1.72-3.69,1.48-.81-.24-3.69-3.76-4.92-3.36s-8.11,3.36-8.11,3.36Z"/>
          <path class="cls-13" d="M235.07,1550.54c3.13-1.32,5.77-2.62,5.23-5.14-.54-2.53-.81-5.68-.81-6.95s-1.53-3.43-6.23-2.17c-4.69,1.26-16.78,7.85-15.88,8.39,.9,.54,4.24,.27,9.2,.18,4.96-.09,3.7,4.78,3.7,5.68s3.31,.62,4.78,0Z"/>
        </g>
        <g id="wing22">
          <path class="cls-19" d="M236.39,1545.23c0-1.43-1.54-15.5-1.54-15.5,0,0-4.9,6.11-5.02,9.34-.12,3.22-2.02,14.08-.59,12.05s7.15-5.89,7.15-5.89Z"/>
          <path class="cls-13" d="M232.85,1552.09c2.74-1.79,5.17-4.06,4.08-7.04-1.1-2.98-12.91-17.19-12.91-17.19,0,0,2.98,23.27,4.42,24.23,1.43,.95,4.42,0,4.42,0Z"/>
        </g>
        <polygon class="cls-27" points="245.05 1540.19 246.95 1538.29 244.22 1538.29 245.05 1540.19"/>
        <polygon class="cls-5" points="245.05 1540.19 244.22 1538.29 244.63 1538.31 245.34 1539.94 245.05 1540.19"/>
        <path class="cls-5" d="M242.45,1539.49c.08,.1,.23,.11,.32,.03,.1-.08,.11-.23,.03-.32-.08-.1-.23-.11-.32-.03-.1,.08-.11,.23-.03,.32Z"/>
      </g>
      <g id="pigeon1">
        <path class="cls-14" d="M255.09,1580.5c13.97-7.27,15.41-16.11,19.71-17.85,1.52-.61,6.48-.57,6.48-.57,0,0-3.27,3.67-5.05,3.4l.81,.45c-.34,2.22,1.41,5.81-2.99,9.3-4.4,3.49-18.96,5.28-18.96,5.28Z"/>
        <g id="wing11">
          <path class="cls-19" d="M252.45,1574.07c1.6-1.35,7.87-6.65,11.68-6.77,3.81-.12,7.74,4.06,5.04,5.29-2.7,1.23-2.87,1.72-3.69,1.48-.81-.24-3.69-3.76-4.92-3.36s-8.11,3.36-8.11,3.36Z"/>
          <path class="cls-13" d="M269.4,1574.33c3.13-1.32,5.77-2.62,5.23-5.14-.54-2.53-.81-5.68-.81-6.95s-1.53-3.43-6.23-2.17c-4.69,1.26-16.78,7.85-15.88,8.39,.9,.54,4.24,.27,9.2,.18,4.96-.09,3.7,4.78,3.7,5.68s3.31,.62,4.78,0Z"/>
        </g>
        <g id="wing12">
          <path class="cls-19" d="M270.72,1569.02c0-1.43-1.54-15.5-1.54-15.5,0,0-4.9,6.11-5.02,9.34-.12,3.22-2.02,14.08-.59,12.05s7.15-5.89,7.15-5.89Z"/>
          <path class="cls-13" d="M267.18,1575.88c2.74-1.79,5.17-4.06,4.08-7.04-1.1-2.98-12.91-17.19-12.91-17.19,0,0,2.98,23.27,4.42,24.23,1.43,.95,4.42,0,4.42,0Z"/>
        </g>
        <polygon class="cls-27" points="279.38 1563.98 281.29 1562.07 278.55 1562.07 279.38 1563.98"/>
        <polygon class="cls-5" points="279.38 1563.98 278.55 1562.07 278.96 1562.1 279.67 1563.73 279.38 1563.98"/>
        <path class="cls-5" d="M276.78,1563.28c.08,.1,.23,.11,.32,.03,.1-.08,.11-.23,.03-.32-.08-.1-.23-.11-.32-.03-.1,.08-.11,.23-.03,.32Z"/>
      </g>
    </g>
    <g id="end">
      <rect y="1200" width="300" height="600"/>
      <g id="starslt">
        <path class="cls-18" d="M25.29,1672.59c1.24,.83,3.32-1.58,4.18,1.24,.44,1.46-.08,2.07-.94,2.99-2.19,2.33-2.25-1.12-3.52-1.2-.15-1.03-.27-2.06,.28-3.03Z"/>
        <path class="cls-18" d="M37.18,1530.1c2.05-2.28,3.33-4.49,2.05-7.46,2.48,.31,4.29,2.09,6.52,.78,.93-.55,1.61,.18,1.45,1.12-.4,2.27,1.41,3.56,2.59,5.5-2.98,.46-4.69,2.22-6.29,4.56-1.39-2.58-3.27-4.09-6.31-4.51Z"/>
        <path class="cls-18" d="M105.79,1629.31c-1.12,2.87-.98,5.17,.83,7.42-2.1,.84-4.59,.45-5.56,2.79-.05,.12-.15,.22-.25,.31-.44,.4-1.27,.54-1.29,.02-.14-2.98-4.66-2.8-4.24-5.19,.27-1.55,2.44-2.91,2.63-5.07,.04-.49,.87-.52,1.37-.22,1.92,1.16,3.87,.39,6.51-.04Z"/>
        <path class="cls-18" d="M2.3,1254.14c1.41,2.91,3.17,4.09,6.09,3.55-.85,2.38-2.93,3.68-1.85,5.99,.43,.93-.71,1.49-1.49,1.05-1.87-1.06-3.29,.1-5.09,.85-.93-1.7-.19-4.05-2.15-5.28-.82-.51-.73-1.59,.38-1.69,2.28-.21,2.99-1.96,4.1-4.47Z"/>
        <path class="cls-18" d="M219.3,1415.22c1.41,2.91,3.17,4.09,6.09,3.55-.85,2.38-2.93,3.68-1.85,5.99,.43,.93-.71,1.49-1.49,1.05-1.87-1.06-3.29,.1-5.09,.85-.93-1.7-.19-4.05-2.15-5.28-.82-.51-.73-1.59,.38-1.69,2.28-.21,2.99-1.96,4.1-4.47Z"/>
        <path class="cls-18" d="M226.61,1756.65c1.41,2.91,3.17,4.09,6.09,3.55-.85,2.38-2.93,3.68-1.85,5.99,.43,.93-.71,1.49-1.49,1.05-1.87-1.06-3.29,.1-5.09,.85-.93-1.7-.19-4.05-2.15-5.28-.82-.51-.73-1.59,.38-1.69,2.28-.21,2.99-1.96,4.1-4.47Z"/>
        <path class="cls-18" d="M192.5,1662.33c1.41,2.91,3.17,4.09,6.09,3.55-.85,2.38-2.93,3.68-1.85,5.99,.43,.93-.71,1.49-1.49,1.05-1.87-1.06-3.29,.1-5.09,.85-.93-1.7-.19-4.05-2.15-5.28-.82-.51-.73-1.59,.38-1.69,2.28-.21,2.99-1.96,4.1-4.47Z"/>
        <path class="cls-18" d="M254.8,1561.21c.2-3.5,.41-5.68-1.74-7.47,3.34,.99,3.64-4.04,6.65-2.68,4.72,2.13,2.93,5.77,1.94,9.41-2.08-.78-4.18-2.07-6.84,.74Z"/>
        <path class="cls-18" d="M276.02,1718.96c.97,1.03,.98,2.59,2.29,3.24,1.2,.59,1.72,1.22,.26,2.25-1.75,1.23,.38,1.8,.74,2.38,.96,1.57,.35,2.93-.75,3.39-1.04,.44-3.01,.54-2.95-1.75,.02-.77-.33-1.56-.94-1.57-2.35-.05-2.54-1.03-3.15-3.33-1.05-3.97,2.71-1.97,3.28-3.54,.16-.43,.77-.69,1.22-1.07Z"/>
        <path class="cls-18" d="M246.66,1700.46c-2.25,.56-2.17,3.03-3.9,3.82-.39-2.43-4.51,.81-4.52-3.48,0-4.1,2.4-4.5,4.73-4.55,1.93-.04,1.39,3.41,3.68,4.21Z"/>
        <path class="cls-18" d="M67.49,1699.76c-2.06,4.62-5.04,5.04-8.88,2.77,3.3-.42-2.15-4.37,3.06-5.72,4.63-1.19,3.24,3.55,5.82,2.95Z"/>
        <path class="cls-18" d="M97.21,1719.2c3.35,2.52,3.55,5.7,.71,8.42-.69,.66-4.63-.38-5.09-1.48-1.66-3.95,1.08-5.92,4.38-6.95Z"/>
        <path class="cls-18" d="M89.94,1390.84c2.06,4.67-3.48,2.23-4.02,4.44-1.12-1.33-3.08-2.64-3.13-4.01-.05-1.42,1.76-2.9,2.75-4.35,.86,2.02,5.98-.68,4.39,3.92Z"/>
        <path class="cls-18" d="M133.19,1394.81c1.49,.8,2.12,2.57,3.34,3.74-1.66,.69-1.67,3.74-3.17,3.42-1.49-.32-4.1-.16-4.18-3.55-.08-3.33,2.32-2.53,4.01-3.61Z"/>
        <path class="cls-18" d="M282,1663.73c2.82-.97,2.77,1.81,3.02,3.47,.3,2.05-2.51,1.32-3.25,2.7-1.07-1.02-2.15-2.05-3.22-3.07,1.35-.7,.34-3.71,3.45-3.09Z"/>
        <path class="cls-18" d="M299.94,1616.55c.58,3.28-2.44,2.69-3.34,2.95-1.53,.43-1.96-2.15-3.17-3.16,1.53-.52,1.32-3.29,3.15-2.93,1.63,.32,4.5,.26,3.36,3.14Z"/>
        <path class="cls-18" d="M262.11,1614.62c-1.4-1.05-3.59,2.32-4.83-1.11-.8-2.22,.3-2.92,1.43-4.16,1.82-1.99,2.82,.47,3.98,.84,2.01,.62-.51,1.75-.37,2.79,.06,.51-.09,1.05-.15,1.58,0,0-.07,.07-.07,.07Z"/>
        <path class="cls-18" d="M28.59,1306.84c-.79-3.08,2.02-2.49,3.25-2.81,2.01-.52,1.65,2.23,2.95,2.98-1.04,1.08-1.34,3.73-2.62,3.36-1.34-.38-4.48-.39-3.58-3.52Z"/>
        <path class="cls-18" d="M103.32,1663.81c3.15-.85,2.59,2.13,2.82,3.46,.33,1.97-2.52,1.27-3.26,2.67-1.12-.98-3.28-2.18-3.13-2.89,.31-1.44,.77-3.87,3.57-3.23Z"/>
        <path class="cls-18" d="M120.95,1616.12c1.02,3.22-2.18,3.22-3.5,3.61-1.45,.43-1.52-2.31-2.68-3.28,1.26-.79,.96-3.52,2.91-3.02,1.18,.3,4.14-.47,3.26,2.69Z"/>
        <path class="cls-18" d="M46.25,1354.51c3.19-.67,2.32,2.49,3.73,3.36-1.05,.92-2.1,1.85-3.15,2.77-.86-1.3-3.69-.71-3.31-2.91,.24-1.4-.36-4.45,2.73-3.23Z"/>
        <path class="cls-18" d="M150.73,1695.16c-1.28-3.14,1.58-2.58,2.54-2.96,2.03-.8,2,1.96,3.33,2.62-.76,1.26-.99,3.44-2.7,3.3-1.5-.11-4.6,.18-3.17-2.96Z"/>
        <path class="cls-18" d="M242.55,1606.91c-.17,.51-1.22,1.82-2.08,1.43-1.8-.82-4.3-1.41-4.29-4.12,0-1.33,1.45-1.73,2.31-1.42,1.71,.63,4.22,.56,4.06,4.11Z"/>
        <path class="cls-18" d="M125.31,1683.14c2.49-.58,2.58,1.64,2.65,2.66,.09,1.5-1.8,1.8-2.94,2.49-.6-1.17-2.94-.93-2.63-2.41,.27-1.28,.66-3.43,2.93-2.75Z"/>
        <path class="cls-18" d="M120,1474.41c.46,.86,2.57,.92,2.1,2.45-.26,.84,.7,2.69-1.74,2.75-2.34,.05-2.98-1.45-3.14-2.87-.08-.65,1.77-1.52,2.78-2.33Z"/>
        <path class="cls-18" d="M124.76,1365.84c.05,1.59-1.49,2.21-2.47,2.38-.68,.12-2.64-.93-2.31-2.08,.26-.93-.53-2.85,1.57-2.98,1.92-.12,2.94,.75,3.21,2.68Z"/>
        <path class="cls-18" d="M157.48,1443.79c-2.23,.35-2.39-1.04-2.66-2.6-.41-2.35,1.87-2.15,2.76-2.48,1.12-.42,2.63,1.32,2.51,2.32-.13,1.08-.87,2.77-2.6,2.76Z"/>
        <path class="cls-18" d="M140.61,1492.32c-1.59,.71-3.15,1.5-4.97,1.39,.02-.13,.05-.26,.06-.4,.17-2-.77-4.89,1.95-5.34,2.86-.47,1.93,2.88,2.96,4.35Z"/>
        <path class="cls-18" d="M163.83,1764.62c-.74,1.29-.41,2.95-2.65,3.06-2.34,.12-2.34-1.62-2.58-2.77-.34-1.6,1.6-2.29,2.51-2.5,1.12-.26,2.1,1.14,2.72,2.21Z"/>
        <path class="cls-18" d="M43.58,1396.05c-.83-1.1-2.85-1.16-2.63-2.67,.16-1.1,0-2.91,2.39-2.93,2.23-.02,2.43,1.5,2.65,2.73,.28,1.54-1.5,1.87-2.41,2.88Z"/>
        <path class="cls-18" d="M172.36,1752.32c-2.17,.58-2.82-1.19-3.07-2.34-.28-1.28,1.18-2.48,2.36-2.37,.99,.1,2.8,.35,2.61,2.26-.13,1.25,.19,2.93-1.9,2.45Z"/>
        <path class="cls-18" d="M89.51,1771.15c-1.01,.87-2.1,2.44-2.89,2.31-1.09-.19-2.84-.78-2.58-2.92,.19-1.51,.66-1.94,2.17-2.11,2.18-.25,2.08,1.72,3.3,2.72Z"/>
        <path class="cls-18" d="M204.49,1625.13c-.96,.97-1.72,2.13-2.91,1.95-.98-.15-2.53-.49-1.99-2.25,.31-1,.11-2.27,2.03-2.13,1.85,.14,1.72,1.76,2.87,2.42Z"/>
        <path class="cls-18" d="M43.24,1586.33c-.88-.83-2.79-.4-2.55-2.48,.15-1.35,.35-2.09,1.99-2.22,1.89-.15,2.4,1.06,2.56,2.28,.15,1.18-.7,2.13-2,2.43Z"/>
        <path class="cls-18" d="M140.68,1226.16c-1.63,.45-2.04-.84-2.3-1.96-.39-1.71,1.05-2.46,2.23-2.51,.99-.04,2.41,.65,2.22,2.19-.14,1.15-.38,2.46-2.15,2.28Z"/>
        <path class="cls-18" d="M191.26,1533.17c-.39,1.23-.57,2.31-2.24,2.42-2.07,.14-2.09-1.47-2.33-2.56-.34-1.58,1.3-2.04,2.29-2.02,1.06,.03,2.21,.79,2.28,2.15Z"/>
        <path class="cls-18" d="M214.25,1540.39c-.8,.86-.2,2.67-2.33,2.13-1.69-.43-2.65-1.26-2.6-2.82,.04-1.21,1.59-1.61,2.37-1.61,1.24,0,2.33,.9,2.56,2.3Z"/>
        <path class="cls-18" d="M219.72,1487.98c-.8,.86-.2,2.67-2.33,2.13-1.69-.43-2.65-1.26-2.6-2.82,.04-1.21,1.59-1.61,2.37-1.61,1.24,0,2.33,.9,2.56,2.3Z"/>
        <path class="cls-18" d="M261.41,1635.8c.37,1.87-1.47,1.73-2.29,1.94-.8,.21-2.37-.28-2.27-1.59,.1-1.33,.6-2.35,2.59-2.55,2.33-.24,1.41,1.37,1.97,2.2Z"/>
        <path class="cls-18" d="M161.28,1523.11c-.95-1.57-2.67-1.42-2.59-2.96,.09-1.72,1.13-2.36,2.78-2.59,2.15-.29,1.47,1.49,1.76,2.35,.67,1.94-1.9,1.32-1.94,3.2Z"/>
        <path class="cls-18" d="M106.89,1543.14c-.95-1.57-2.67-1.42-2.59-2.96,.09-1.72,1.13-2.36,2.78-2.59,2.15-.29,1.47,1.49,1.76,2.35,.67,1.94-1.9,1.32-1.94,3.2Z"/>
        <path class="cls-18" d="M189.46,1726.52c.22,2.14-1.65,2.01-2.68,2.22-1.22,.25-1.86-1.28-1.8-2.14,.08-1.2,.63-2.64,2.45-2.35,1.3,.21,2.29,.74,2.04,2.27Z"/>
        <path class="cls-18" d="M63.8,1610.03c-.42,1.59-1.63,2.18-2.67,2.13-1.08-.06-2.13-.76-2.05-2.35,.1-1.96,1.63-1.88,2.79-2.06,1.96-.3,.71,2.02,1.94,2.29Z"/>
        <path class="cls-18" d="M160.07,1268.03c-1.07-1.01-2.55-1.41-2.18-2.8,.19-.72-.15-2.45,1.73-2,1.13,.27,2.47,.1,2.44,1.9-.02,1.52-1.55,1.63-1.99,2.89Z"/>
        <path class="cls-18" d="M271.8,1530.8c-.27,1.34-.58,2.26-2.2,2.38-2.07,.15-2.04-1.49-2.3-2.54-.39-1.6,1.3-2.01,2.24-2.01,1.1,0,2,1.02,2.26,2.17Z"/>
        <path class="cls-18" d="M19.92,1240.15c-2.38,.93-2.28-1.3-2.49-2.34-.22-1.11,1.24-1.85,2.14-1.76,1.19,.11,2.58,.56,2.39,2.44-.13,1.39-.28,2.43-2.05,1.67Z"/>
        <path class="cls-18" d="M83.3,1492.79c-.7,1.3-.73,2.62-2.5,2.5-1.99-.13-1.96-1.73-2.1-2.83-.17-1.29,1.35-1.7,2.25-1.71,1.26,0,1.76,1.27,2.35,2.04Z"/>
        <path class="cls-18" d="M27.19,1474.18c-.7,1.3-.73,2.62-2.5,2.5-1.99-.13-1.96-1.73-2.1-2.83-.17-1.29,1.35-1.7,2.25-1.71,1.26,0,1.76,1.27,2.35,2.04Z"/>
        <path class="cls-18" d="M82.47,1553.28c-2.12,.13-2.01-1.71-2.15-2.76-.15-1.14,1.3-1.88,2.23-1.73,1.03,.16,2.39,.9,2.11,2.34-.2,1.07-.53,2.5-2.19,2.15Z"/>
        <path class="cls-18" d="M144.73,1417.51c-1.35,.8-1.22,2.6-2.86,2.35-1.43-.22-2.33-.73-2.25-2.56,.08-1.86,1.47-1.85,2.46-1.98,1.48-.18,1.28,1.73,2.65,2.18Z"/>
        <path class="cls-18" d="M225.51,1584.13c-.39,1.32-1.31,2.48-2.34,2.54-.84,.05-2.48-.52-2.42-1.98,.04-1.08,.17-2.34,1.96-2.44,1.65-.1,1.89,1.23,2.81,1.89Z"/>
        <path class="cls-18" d="M189.43,1565.13c-1.12,1.04-1,2.69-2.83,2.76-1.7,.06-1.87-1-2.14-2.16-.4-1.75,1.52-1.46,2.07-2.37,.93,.57,1.86,1.14,2.9,1.77Z"/>
        <path class="cls-18" d="M145.14,1256.11c-.45,1.21-.55,2.43-2.26,2.44-1.7,0-2.08-1.19-2.2-2.28-.13-1.13,1.27-2.15,1.91-2.09,.96,.09,2.24,.68,2.56,1.92Z"/>
        <path class="cls-18" d="M114,1395.16c1.21,.49,2.07,1.05,2.15,2.26,.07,1.03-.18,1.8-1.47,1.88-1.47,.1-1.83-.95-2.06-1.95-.27-1.15,.97-1.42,1.38-2.19Z"/>
        <path class="cls-18" d="M35.05,1704.56c1.09,.22,2.01,.85,1.93,2-.05,.7-.18,1.84-1.66,1.71-1.16-.1-1.87-.08-2.12-1.53-.3-1.69,1.06-1.55,1.86-2.18Z"/>
        <path class="cls-18" d="M79.27,1231.82c.78-.08,1.32,.5,1.47,1.61,.21,1.48-.98,1.89-1.91,2.12-1.13,.28-1.68-.88-1.81-1.7-.19-1.2,.58-1.95,2.24-2.02Z"/>
        <path class="cls-18" d="M162.92,1567.3c-.51,.71-.54,2.03-1.74,1.9-1.01-.11-2.1-.45-2.15-1.91-.05-1.23,.56-1.7,1.64-1.82,1.36-.16,1.89,.72,2.26,1.83Z"/>
        <path class="cls-18" d="M230.8,1611.38c-1.07,.1-1.87-.47-2.07-1.4-.25-1.1,.67-1.69,1.6-1.83,.94-.14,1.85,.12,1.97,1.36,.1,1.1-.33,1.77-1.49,1.87Z"/>
        <path class="cls-18" d="M250.31,1541.31c1.21-.05,1.73,.96,1.69,1.74-.04,.98-.77,1.98-2.04,1.67-.89-.22-1.63-.72-1.47-1.93,.15-1.15,.74-1.57,1.82-1.47Z"/>
        <path class="cls-18" d="M223.21,1574.85c-.16,1.02-.65,1.73-1.76,1.75-.91,.01-1.54-.55-1.62-1.39-.11-1.17,.83-1.6,1.77-1.63,.75-.03,1.6,.19,1.61,1.28Z"/>
        <path class="cls-18" d="M98.67,1301.98c-1.37,.06-2.01-.46-2.18-1.57-.16-1.01,.3-1.47,1.28-1.57,1.29-.14,2.17,.39,2.22,1.66,.03,.83-.66,1.39-1.32,1.48Z"/>
        <path class="cls-18" d="M263.8,1420.95c.78-.08,1.32,.5,1.47,1.61,.21,1.48-.98,1.89-1.91,2.12-1.13,.28-1.68-.88-1.81-1.7-.19-1.2,.58-1.95,2.24-2.02Z"/>
        <path class="cls-18" d="M283.21,1491.1c-1.37,.06-2.01-.46-2.18-1.57-.16-1.01,.3-1.47,1.28-1.57,1.29-.14,2.17,.39,2.22,1.66,.03,.83-.66,1.39-1.32,1.48Z"/>
        <path class="cls-18" d="M191.71,1403.57c-1.37,.06-2.01-.46-2.18-1.57-.16-1.01,.3-1.47,1.28-1.57,1.29-.14,2.17,.39,2.22,1.66,.03,.83-.66,1.39-1.32,1.48Z"/>
        <path class="cls-18" d="M284.76,1347.05c.2,1.49-1.35,2.11-2.14,2.2-.85,.1-2.38-.66-2.34-1.99,.04-1.35,.7-2.18,2.44-2.45,2.21-.33,1.48,1.29,2.03,2.24Z"/>
        <path class="cls-18" d="M214.42,1357.82c-.27,1.34-.58,2.26-2.2,2.38-2.07,.15-2.04-1.49-2.3-2.54-.39-1.6,1.3-2.01,2.24-2.01,1.1,0,2,1.02,2.26,2.17Z"/>
        <path class="cls-18" d="M259.6,1319.26c-2.25,.72-2.04-1.38-2.13-2.3-.12-1.3,1.44-1.58,2.41-2.15,.23,1.18,2.86,.59,1.95,2.21-.42,.75,.53,3.65-2.24,2.23Z"/>
        <path class="cls-18" d="M219.27,1281.34c3.6-.24,6.95,2.54,6.24,5.12-.37,1.34-2.95,3.05-4.3,2.87-1.46-.2-2.65-2.4-3.96-3.74,1.41-1.13,1.14-3.34,2.02-4.25Z"/>
        <path class="cls-18" d="M267.83,1242.3c-1.63,.45-2.04-.84-2.3-1.96-.39-1.71,1.05-2.46,2.23-2.51,.99-.04,2.41,.65,2.22,2.19-.14,1.15-.38,2.46-2.15,2.28Z"/>
        <path class="cls-18" d="M287.22,1284.17c-1.07-1.01-2.55-1.41-2.18-2.8,.19-.72-.15-2.45,1.73-2,1.13,.27,2.47,.1,2.44,1.9-.02,1.52-1.55,1.63-1.99,2.89Z"/>
        <path class="cls-18" d="M272.29,1272.25c-.45,1.21-.55,2.43-2.26,2.44-1.7,0-2.08-1.19-2.2-2.28-.13-1.13,1.27-2.15,1.91-2.09,.96,.09,2.24,.68,2.56,1.92Z"/>
        <path class="cls-18" d="M206.42,1247.97c.78-.08,1.32,.5,1.47,1.61,.21,1.48-.98,1.89-1.91,2.12-1.13,.28-1.68-.88-1.81-1.7-.19-1.2,.58-1.95,2.24-2.02Z"/>
        <path class="cls-18" d="M225.82,1318.12c-1.37,.06-2.01-.46-2.18-1.57-.16-1.01,.3-1.47,1.28-1.57,1.29-.14,2.17,.39,2.22,1.66,.03,.83-.66,1.39-1.32,1.48Z"/>
        <path class="cls-18" d="M3.47,1772.7c.2,1.49-1.35,2.11-2.14,2.2-.85,.1-2.38-.66-2.34-1.99,.04-1.35,.7-2.18,2.44-2.45,2.21-.33,1.48,1.29,2.03,2.24Z"/>
        <path class="cls-18" d="M5.92,1709.83c-1.07-1.01-2.55-1.41-2.18-2.8,.19-.72-.15-2.45,1.73-2,1.13,.27,2.47,.1,2.44,1.9-.02,1.52-1.55,1.63-1.99,2.89Z"/>
        <path class="cls-18" d="M52.71,1609.88c.12,1.13-.72,1.62-1.69,1.72-1.01,.11-1.35-.9-1.42-1.59-.11-1.03,.51-1.78,1.67-1.76,.97,.01,1.46,.55,1.45,1.64Z"/>
        <path class="cls-18" d="M262.17,1614.56c.1,.07,.21,.13,.31,.2-.13-.04-.25-.09-.38-.13,0,0,.07-.07,.07-.07Z"/>
        <path class="cls-18" d="M180.99,1322.33c-1.4-1.05-3.59,2.32-4.83-1.11-.8-2.22,.3-2.92,1.43-4.16,1.82-1.99,2.82,.47,3.98,.84,2.01,.62-.51,1.75-.37,2.79,.06,.51-.09,1.05-.15,1.58,0,0-.07,.07-.07,.07Z"/>
        <path class="cls-18" d="M161.43,1314.61c-.17,.51-1.22,1.82-2.08,1.43-1.8-.82-4.3-1.41-4.29-4.12,0-1.33,1.45-1.73,2.31-1.42,1.71,.63,4.22,.56,4.06,4.11Z"/>
        <path class="cls-18" d="M123.37,1332.83c-.96,.97-1.72,2.13-2.91,1.95-.98-.15-2.53-.49-1.99-2.25,.31-1,.11-2.27,2.03-2.13,1.85,.14,1.72,1.76,2.87,2.42Z"/>
        <path class="cls-18" d="M180.29,1343.51c.37,1.87-1.47,1.73-2.29,1.94-.8,.21-2.37-.28-2.27-1.59,.1-1.33,.6-2.35,2.59-2.55,2.33-.24,1.41,1.37,1.97,2.2Z"/>
        <path class="cls-18" d="M149.67,1319.08c-1.07,.1-1.87-.47-2.07-1.4-.25-1.1,.67-1.69,1.6-1.83,.94-.14,1.85,.12,1.97,1.36,.1,1.1-.33,1.77-1.49,1.87Z"/>
        <path class="cls-18" d="M181.05,1322.26c.1,.07,.21,.13,.31,.2-.13-.04-.25-.09-.38-.13,0,0,.07-.07,.07-.07Z"/>
      </g>
      <g id="cloud2f">
        <use width="135.33" height="40.35" transform="translate(230.98 1284.93)" xlink:href="#cloud"/>
        <rect class="cls-2" x="230.98" y="1284.11" width="135.28" height="41.72"/>
      </g>
      <g id="cloud1f">
        <use width="135.33" height="40.35" transform="translate(-77.1 1652.85)" xlink:href="#cloud"/>
        <rect class="cls-2" x="-77.1" y="1652.03" width="135.28" height="41.72"/>
      </g>
      <g id="stars">
        <g id="star2-10" data-name="star2">
          <use width="16.75" height="16.75" transform="translate(258.53 1690.59) scale(2.03)" xlink:href="#stars2"/>
          <rect class="cls-2" x="258.53" y="1690.59" width="33.9" height="33.9"/>
        </g>
        <g id="star3-7" data-name="star3">
          <use width="26.16" height="26.11" transform="translate(51.67 1316)" xlink:href="#stars3"/>
          <rect class="cls-2" x="51.67" y="1316" width="26.11" height="26.11"/>
        </g>
        <g id="star3-8" data-name="star3">
          <use width="26.16" height="26.11" transform="translate(243.4 1631.54) scale(.76)" xlink:href="#stars3"/>
          <rect class="cls-2" x="243.4" y="1631.54" width="19.78" height="19.78"/>
        </g>
        <g id="star1-4" data-name="star1">
          <use width="22.3" height="22.3" transform="translate(259.9 1406.88) scale(.67)" xlink:href="#stars1"/>
          <rect class="cls-2" x="259.98" y="1406.9" width="14.67" height="14.67"/>
        </g>
      </g>
      <g id="alltubesf">
        <g class="cls-8">
          <g id="tubesf">
            <g>
              <rect id="b1f" class="cls-31" x="114.76" y="1345.38" width="5.71" height="182.58" transform="translate(-108.76 13.08) rotate(-4.36)"/>
              <rect class="cls-2" x="111.48" y="1345.06" width="12.21" height="178.68" transform="translate(-108.59 13.07) rotate(-4.36)"/>
            </g>
            <g>
              <rect id="b2f" class="cls-6" x="126.06" y="1334.51" width="5.71" height="176.99" transform="translate(-60.69 6.81) rotate(-2.45)"/>
              <rect class="cls-2" x="123.3" y="1334.44" width="11.22" height="176.86" transform="translate(-60.69 6.81) rotate(-2.45)"/>
            </g>
            <g>
              <rect id="b3f" class="cls-21" x="136.1" y="1354.74" width="5.71" height="176.99" transform="translate(-20.29 2.1) rotate(-.81)"/>
              <rect class="cls-2" x="132.44" y="1354.74" width="13.04" height="176.87" transform="translate(-20.29 2.1) rotate(-.81)"/>
            </g>
            <g>
              <rect id="b4f" class="cls-9" x="145.48" y="1328.59" width="5.71" height="188.58" transform="translate(-1.95 .2) rotate(-.08)"/>
              <rect class="cls-2" x="143.43" y="1328.59" width="11.16" height="176.83" transform="translate(-1.94 .21) rotate(-.08)"/>
            </g>
            <g>
              <rect id="b5f" class="cls-16" x="154.68" y="1360.55" width="5.71" height="176.99" transform="translate(24.88 -2.49) rotate(.98)"/>
              <rect class="cls-2" x="152.43" y="1360.32" width="10.2" height="177.57" transform="translate(24.88 -2.49) rotate(.98)"/>
            </g>
            <g>
              <rect id="b6f" class="cls-4" x="163.71" y="1334.7" width="5.71" height="185.55" transform="translate(82.38 -7.22) rotate(3.3)"/>
              <rect class="cls-2" x="161.17" y="1334.7" width="10.79" height="185.54" transform="translate(82.38 -7.22) rotate(3.3)"/>
            </g>
            <g>
              <rect id="b7f" class="cls-3" x="176.6" y="1345.84" width="5.71" height="176.99" transform="translate(110.7 -9.55) rotate(4.41)"/>
              <rect class="cls-2" x="173.48" y="1346" width="11.97" height="176.39" transform="translate(110.69 -9.55) rotate(4.41)"/>
            </g>
          </g>
        </g>
      </g>
      <g id="livebox">
        <path id="borderbox" class="cls-20" d="M253.63,1439.45c-6.33-9.66-12.65-19.33-19-28.98-1.09-1.15-2.83-.41-4.19-.57-1.24,0-3.96-.01-4.07-.01-39.61-.22-144.86-.37-158.67-.37h0c-7.41,10.15-15.25,20-22.8,30.03,0,.03,0,.06,0,.09,0,0,0,0,0,0,0,0,0,0,0,0,0,0,0,0,0,0-.07,5.13-.4,22.95-.4,26.73h0c4.05,0,8.1,0,12.24,0-.29,1.41,.59,2.54,1.75,3.19H240.18c.51-.18,.92-.46,1.23-.79,.59-.59,.86-1.36,.71-2.39h0c.6-.02,1.19-.04,1.79-.06h0c1.36,.02,2.71,.01,4.07,.02h0s0,0,0,0c0,0,0,0,0,0,.64,0,1.28,0,1.93,0,0,0,0,0,0,0h0s0,0,0,0c1.3,0,2.6,0,3.91,.05,0,0,0,0,0,0,0-8.97-.12-26.91-.18-26.91Zm-19.4,13.83h0"/>
        <g id="box">
          <path class="cls-12" d="M253.63,1439.39c-6.33-9.66-12.65-19.33-19-28.98-.98-1.17-2.84-.39-4.19-.57-40.98-.17-81.97-.23-122.95-.18,.56,0,1.12-.03,1.67-.05-.02-.05-.04-.1-.04-.16h-41.44c-7.4,10.16-15.23,19.99-22.8,30.03-.08,5.15-.15,10.32-.22,15.48-.06,0-.12,0-.18,0v11.33h12.24c-.26,1.53,.56,2.47,1.75,3.19H240.18c1.41-.6,2.16-1.6,1.94-3.19,.6-.02,1.19-.04,1.79-.06,0-8.52,0-17.04,.02-25.56-.02,8.52-.02,17.04-.02,25.56,3.3,.06,6.61-.06,9.9,.07v-26.92c-.06,0-.12,0-.18,.01Zm-37.71,.21c0,1.88,0,3.77,.01,5.65,.11-4.12-.18-8.21-.65-12.3,.22,2.22,.43,4.44,.64,6.65Zm-12.19,26.66c-.79,.04-1.23,.06-1.48-.07,.25,.14,.69,.11,1.48,.07h0Zm.15-26.72c-.06,.25-.17,.51-.17,.76,0-.25,.11-.51,.17-.76h0Zm13.98,17.39h0c.38-.02,.77-.04,1.15-.06-.38,.02-.77,.04-1.15,.06Zm.01-.51c-1.14-.22-4.09,.79-4.15-.37,.17,.73,.69,.67,2.26,.41h0c1.03-.03,2.05-.09,3.05,.22-.39-.08-.77-.17-1.16-.25Zm15.75-41.64c-.06-.12-.12-.24-.18-.35,.3,.59,.58,1.18,.88,1.78-.23-.47-.47-.95-.7-1.42Z"/>
          <g>
            <path d="M240.18,1469.49H58.49c-1.19-.72-2.01-1.66-1.75-3.19h-12.24c.19-8.86,.26-17.8,.4-26.73,51.17-.97,105.05,1.86,154.93-.95-.02-9.46-.01-18.92-.01-28.38h1.41c-.4,18.38,.99,36.01,.7,54.33-.64,3.02,3.9,1.26,5.84,1.7v-7.25c.59-3.44-2.82-1.57-4.87-2.17,0-.08,.01-.17,.02-.25,1.42-.52,5.16,1.06,4.85-1.23,.35-15.06-.54-30.08-1.15-45.11h1.26c.84,15.06,1.91,30.12,1.66,45.21-.29,1.52,2.52,1.58,2.32,.03-.05-4.96-.03-9.92-.02-14.87-.14-9.74-1.45-19.55-2.1-29.3-.1-1.2,.03-1.28,1.35-1.02,.97,14.73,2.92,29.44,2.55,44.22-.62,3.84,3.24,1.08,5.39,2.16,0,.07,0,.13-.01,.2-1.77,.11-3.54,.08-5.31,.08v9.29c2.06-.01,3.88,.04,5.94,.03,.78-19.01-.91-37.66-3.54-56.46,.41,0,.83,0,1.24,0,2.79,18.8,5.13,37.4,4.25,56.45,1.56-.04,2.18,.45,1.95-1.37,0-8.36,0-16.72,0-25.07q1.95-.3,1.95,1.42c0,8.32,0,16.63,0,24.95h2.26c.07-8.96,.11-17.93-.01-26.89-2.26-9.59-4.55-19.25-6.81-28.82,.39-.25,.71-.46,1.03-.66,.11,0,.23,0,.34,0,2.35,10.19,4.45,21.2,7.45,30.87,.04,8.5-.07,17.01,.05,25.51h2.08c-.26-9.52,.5-19.13-.26-28.6-2.43-9.22-6.87-18.61-8.24-27.78,.35,0,.7,0,1.05,0,2.39,10.05,7.05,19.81,8.77,29.89,.03,0,.28,.04,.63,.09v26.4h2.11c-.1-9.19,.17-18.76-.04-27.74-2.92-9.52-8.41-19.14-10.05-28.64,.29,0,.58-.01,.88-.02,3.26,10.01,8.07,19.79,10.65,29.88,.65-.12,.51,.45,.51,.92,0,8.53,0,17.06,0,25.59h2.11c0-8.39,0-16.75,0-25.13-.14-1.55,.43-1.61,1.79-1.19,0,8.48,0,16.97,.01,25.45,.77,1.7,.23,3.49-1.61,4.15Zm-28.42-3.24v-9.26h-2.14v9.26h2.14Z"/>
            <path class="cls-12" d="M216.09,1409.81c2.64,18.8,4.33,37.45,3.54,56.46-.64,0-1.22,0-1.79,0,0-3.11,0-6.23,0-9.34l1.15-.06c0-.07,0-.13,.01-.2-.39-.08-.77-.17-1.16-.25,.02-5.33,0-10.66,0-15.99,0-.39,.13-.88-.54-.87-.88-8.93-1.7-17.86-2.66-26.79-.24-.9,.27-2.84-1.18-2.6-.61,.05-.48,.4-.43,.81,.49,5.37,1.05,10.74,1.62,16.11,1.33,9.75,1.35,19.55,1.29,29.37-2.29,.38-2.34,.33-2.34-1.94,.38-14.78-1.57-29.49-2.55-44.22-1.31-.26-1.44-.19-1.35,1.02,.66,9.75,1.96,19.57,2.1,29.3-.01,4.96-.03,9.92,.02,14.87,.2,1.58-2.62,1.46-2.32-.03,.25-15.09-.82-30.16-1.66-45.22h-1.26c.62,15.03,1.5,30.05,1.15,45.11,.28,1.74-1.18,1.07-2.3,1.17,.78-10.8-.55-21.56-.51-32.41-.57-1.89,1.14-15.92-1.61-13.77,.47,15.41,.46,30.78,.38,46.18-.27,.02-.54,.04-.81,.05,0,.08-.01,.17-.02,.25,.28,.03,.55,.07,.83,.1,0,3.11,0,6.22,0,9.33q-1.8,.09-1.8-1.7c.29-18.32-1.11-35.95-.7-54.33h-1.41c0,9.46,0,18.92,.01,28.38-49.89,2.8-103.74-.02-154.93,.95,7.43-10.1,15.44-19.92,22.8-30.11,49.34,.54,98.95-.08,148.39,.35Z"/>
            <path class="cls-22" d="M253.81,1466.3c-.06,0-.13-.01-.19-.02,0-8.96,0-17.92,0-26.89,.06,0,.12,0,.18-.01v26.92Z"/>
            <path class="cls-22" d="M109.13,1409.46c0,.05,.01,.11,.04,.16-7.31-.04-14.73,.35-21.99-.16,7.32,0,14.64,0,21.96,0Z"/>
            <path class="cls-22" d="M83.46,1409.46c-5.06,.32-10.34,.32-15.41,0,5.14,0,10.27,0,15.41,0Z"/>
            <path class="cls-22" d="M44.5,1454.97h.18c-.15,2.26,.33,4.75-.18,6.91,0-2.3,0-4.6,0-6.91Z"/>
            <path class="cls-12" d="M217.33,1409.82c1.54,0,3.07,.01,4.61,.02-.32,.21-.64,.41-1.03,.66,2.26,9.58,4.55,19.23,6.81,28.82,.13,8.95,.09,17.93,.02,26.89h-2.26c0-8.32,0-16.63,0-24.95q0-1.73-1.95-1.42c0,8.35,0,16.72,0,25.07,.23,1.81-.39,1.35-1.95,1.37,.88-19.06-1.46-37.66-4.25-56.45Zm7.99,29.29c-1.75-9.67-3.48-19.29-5.24-29.01-.58,.21-1.45-.19-1.27,.85,1.72,9.47,3.4,18.92,5.14,28.38,.47-.08,.87-.14,1.36-.22Zm2.02,8.76v-8.17h-1.29v8.17h1.29Z"/>
            <path class="cls-12" d="M243.91,1466.23c-.6,.02-1.19,.04-1.79,.06-.92-8.62-.05-17.65-.34-26.41-1.36-.41-1.93-.37-1.79,1.19,0,8.38,0,16.74,0,25.13h-2.11c0-8.53,0-17.06,0-25.59,0-.47,.13-1.04-.51-.92-2.57-10.09-7.39-19.87-10.65-29.88,1.24,0,2.49,.01,3.73,.02-.22,.24-.44,.49-.7,.78,4.95,9.58,9.91,19.17,14.86,28.76-.11,0-.21,0-.32,0-1.01,8.79-.08,17.95-.39,26.86Zm-2.5-27.59c-3.88-9.23-8.09-18.36-12.04-27.57-.48-1.1-.68-1.17-1.71-.35,4.11,9.18,8.12,18.42,12.18,27.62,.46,1.05,.54,1.06,1.57,.3Zm2.24,9.2v-8.16h-1.31v8.16h1.31Z"/>
            <path class="cls-12" d="M222.28,1409.84c.36,0,.72,0,1.08,0,1.37,9.17,5.81,18.56,8.24,27.78,.76,9.46,0,19.07,.26,28.6h-2.08c-.12-8.5,0-17.01-.05-25.51-3-9.67-5.1-20.67-7.45-30.87Z"/>
            <path class="cls-12" d="M224.41,1409.83c.48,0,.95,0,1.43,0,1.64,9.5,7.12,19.12,10.04,28.64,.21,8.98-.06,18.54,.04,27.74h-2.11v-26.4c-.35-.05-.61-.09-.63-.09-1.72-10.09-6.38-19.84-8.77-29.89Zm11.06,29.85h-1.37v8.14h1.37v-8.14Z"/>
            <path class="cls-22" d="M217.33,1439.56c.67-.01,.54,.48,.54,.87,0,5.33,.01,10.66,0,15.99-.63,.01-1.26,.03-1.89,.04-.02-5.62-.05-11.24-.05-16.86,.47-.01,.94-.03,1.41-.04Z"/>
            <path class="cls-22" d="M203.72,1456.53c.14-5.65-.31-11.39,.16-16.98,.47,0,.94,.02,1.42,.03,.77,5.44,.39,11.42,.16,16.96-.58,0-1.16,0-1.73,0Z"/>
            <path class="cls-12" d="M211.76,1466.25h-2.14v-9.26h2.14v9.26Z"/>
            <path class="cls-12" d="M215.95,1466.24h-2.26v-9.29c.75,0,1.5,0,2.25,0,0,3.1,0,6.19,.01,9.29Z"/>
            <path class="cls-12" d="M205.63,1456.93q2.13-.08,2.13,2.07v7.25c-.76,0-1.45,0-2.14,0,0-3.11,0-6.22,0-9.33Z"/>
            <path class="cls-22" d="M205.63,1456.93c0,3.11,0,6.22,0,9.33-.63,0-1.27,0-1.9,0,0-3.11,0-6.22,0-9.33,.64,0,1.28,0,1.92,0Z"/>
            <path class="cls-22" d="M215.95,1466.24c0-3.1,0-6.19-.01-9.29,.64,0,1.27-.01,1.91-.02,0,3.11,0,6.23,0,9.34-.63,0-1.26-.02-1.89-.03Z"/>
            <path d="M217.33,1439.56c-.47,.01-.94,.03-1.41,.04-.87-9.55-1.99-19.08-2.86-28.62-.06-.41-.19-.76,.43-.81,1.45-.25,.94,1.71,1.18,2.6,.96,8.92,1.78,17.86,2.66,26.79Z"/>
            <path d="M205.29,1439.57c-.47,0-.94-.02-1.42-.03-.06-9.73-.37-19.47-.54-29.2,1.2-.36,1.39-.23,1.41,.87,.11,9.45,.32,18.9,.54,28.35Z"/>
            <path d="M243.91,1466.23c.31-8.91-.63-18.08,.39-26.86,.11,0,.21,0,.32,0-4.96-9.59-9.92-19.19-14.86-28.76,.26-.29,.48-.53,.7-.78,1.43,.02,3.68-.19,4.19,.57,6.5,9.69,12.67,19.32,19,28.98,0,8.96,0,17.92,0,26.89-.58-.01-1.16-.02-1.75-.04-.24-9.07,.46-18.35-.26-27.32-5.51-8.07-10.68-17-16.47-24.58,.08,.03,.15,.06,.23,.09,15.48,28.42,15.15,18.26,14.53,51.82-.64,0-1.28,0-1.93,0,.44-31.75,1.48-24.71-14.61-51.92,13.96,27.63,13.4,19.88,12.47,51.92-.64,0-1.28,0-1.92-.01Z"/>
            <path class="cls-12" d="M249.91,1466.25c.65-33.51,.89-23.52-14.53-51.82l.02-.03c18.65,28.83,16.73,17.42,16.47,51.84-.66,0-1.31,0-1.97,0Z"/>
            <path class="cls-12" d="M234.36,1416.16c16.04,25.95,13.72,20.28,13.62,50.09h-2.15c.64-30.87,2.22-23.4-11.52-50.05l.05-.04Z"/>
            <path d="M225.32,1439.11c-.5,.08-.89,.15-1.36,.22-1.75-9.47-3.42-18.92-5.14-28.38-.18-1.03,.69-.64,1.27-.85,1.75,9.72,3.49,19.34,5.24,29.01Z"/>
            <path class="cls-17" d="M227.35,1447.86h-1.29v-8.17h1.29v8.17Z"/>
            <path d="M241.4,1438.64c-1.03,.77-1.11,.76-1.57-.3-4.06-9.2-8.08-18.44-12.18-27.62,1.04-.82,1.23-.76,1.71,.35,3.96,9.21,8.17,18.34,12.04,27.57Z"/>
            <path class="cls-3" d="M243.65,1447.84h-1.31v-8.16h1.31v8.16Z"/>
            <path class="cls-3" d="M235.48,1439.68v8.14h-1.37v-8.14h1.37Z"/>
            <path class="cls-12" d="M234.31,1416.2c-.23-.47-.47-.95-.7-1.42,0,0,.02-.02,.02-.02,.24,.47,.48,.94,.73,1.4,0,0-.05,.04-.05,.04Z"/>
            <path class="cls-12" d="M235.38,1414.43c-.08-.03-.15-.06-.23-.09,.06-.13,.16,.03,.25,.06,0,0-.02,.03-.02,.03Z"/>
            <path class="cls-12" d="M233.45,1414.41c.06,.12,.12,.24,.18,.35,0,0-.02,.02-.02,.02-.06-.12-.12-.24-.18-.35l.02-.02Z"/>
            <path class="cls-12" d="M233.44,1414.42s-.05-.06-.07-.09c.03,.03,.06,.05,.09,.08,0,0-.02,.02-.02,.02Z"/>
          </g>
        </g>
      </g>
      <g id="balloonf">
        <use id="ballonzf" width="139.37" height="203.38" transform="translate(215.89 1312.86) scale(.4)" xlink:href="#ballonz"/>
        <rect class="cls-2" x="216.04" y="1312.96" width="56.17" height="82.09"/>
      </g>
    </g>
  </g>
</svg>