<?xml version="1.0" encoding="UTF-8"?>
<svg id="fleches" xmlns="http://www.w3.org/2000/svg" width="160" height="600" viewBox="0 0 160 600">
  <defs>
    <style>
      .cls-1 {
        stroke-width: 1.13px;
      }

      .cls-1, .cls-2, .cls-3, .cls-4, .cls-5, .cls-6, .cls-7, .cls-8, .cls-9, .cls-10, .cls-11, .cls-12, .cls-13 {
        fill: none;
        stroke-miterlimit: 10;
      }

      .cls-1, .cls-4, .cls-7, .cls-11 {
        stroke: #fbcd00;
      }

      .cls-2 {
        stroke-width: 2.16px;
      }

      .cls-2, .cls-3, .cls-5, .cls-10, .cls-12 {
        stroke: #fff;
      }

      .cls-14 {
        fill: #fff;
      }

      .cls-3 {
        stroke-width: 1.62px;
      }

      .cls-4 {
        stroke-width: 1.77px;
      }

      .cls-5 {
        stroke-width: 1.35px;
      }

      .cls-6 {
        stroke-width: 1.81px;
      }

      .cls-6, .cls-8, .cls-9, .cls-13 {
        stroke: #facc00;
      }

      .cls-7 {
        stroke-width: 1.03px;
      }

      .cls-8 {
        stroke-width: 2.62px;
      }

      .cls-9 {
        stroke-width: 1.35px;
      }

      .cls-10 {
        stroke-width: 2px;
      }

      .cls-11 {
        stroke-width: 1.07px;
      }

      .cls-12 {
        stroke-width: 1.13px;
      }

      .cls-13 {
        stroke-width: 2.42px;
      }

      .cls-15 {
        fill: #fbcd00;
      }

      .cls-16 {
        fill: #facc00;
      }
    </style>
  </defs>
  <g id="_60x600" data-name="160x600">
    <g id="fleches1">
      <g>
        <polygon class="cls-16" points="113.86 379.6 111.81 381.77 122.5 391.86 111.66 401.78 113.68 403.98 126.88 391.89 113.86 379.6"/>
        <path class="cls-8" d="M216.86,568.47c11.32-25.55,8.51-56.85-7.17-79.98-15.68-23.13-43.72-37.32-71.64-36.27-8.16,.31-16.5,1.92-23.38,6.31s-12.11,11.95-12.14,20.12c-.04,10.19,7.99,19.09,17.45,22.86,18.2,7.26,40.53-2.67,49.99-19.83,9.45-17.16,7.06-39.3-3.22-55.99-9.71-15.77-25.56-27-42.78-33.92"/>
      </g>
      <g>
        <polygon class="cls-16" points="54.89 260.38 53 258.36 62.95 249.05 52.94 239.8 54.82 237.77 67.01 249.04 54.89 260.38"/>
        <path class="cls-13" d="M-40.71,201.13c35.84-2.91,71.68-5.83,107.52-8.74,2.23-.18,4.62-.32,6.53,.83,4.32,2.62,2.94,9.1,1.24,13.86-4.88,13.68-7.89,28.04-8.91,42.53"/>
      </g>
      <g>
        <polygon class="cls-14" points="86.06 224.17 84.32 222.43 92.91 213.84 83.72 205.9 85.33 204.03 96.52 213.71 86.06 224.17"/>
        <path class="cls-2" d="M96.78-.05c8.28,6.16,16.57,12.32,24.85,18.48,2.23,1.66,4.58,3.47,5.47,6.1,1.21,3.57-.64,7.39-2.55,10.63-7.21,12.23-16.16,23.44-26.5,33.17-4.48,4.22-9.37,8.37-11.81,14.03-2.9,6.74-1.79,14.6,.89,21.44,6.41,16.37,21.43,28.6,38.28,33.59,1.95,.58,4.18,1.27,5.01,3.13,.55,1.25,.31,2.69-.03,4.01-3.46,13.47-14.61,23.27-23.53,33.94-8.34,9.97-15.24,23.57-11.29,35.59"/>
      </g>
      <g>
        <polygon class="cls-16" points="72.12 421.46 70.68 419.82 78.75 412.72 71.08 405.18 72.61 403.62 81.95 412.8 72.12 421.46"/>
        <path class="cls-8" d="M-6.12,449.67c42.12,4.16,64.15-12.91,87.1-36.65"/>
      </g>
    </g>
    <g id="fleches2">
      <g>
        <polygon class="cls-14" points="52.96 120.15 51.82 118.7 59.02 113.12 52.93 106.35 54.31 105.12 61.72 113.36 52.96 120.15"/>
        <path class="cls-3" d="M-3.58,87.53c5.04-1.73,13.27-9.7,15.9-13.46,.87-1.25,1.9-2.67,3.41-2.81,1.02-.1,1.99,.42,2.84,.98,8.75,5.65,13.07,15.9,18.53,24.77,5.1,8.29,13.13,16.42,22.61,16.47"/>
      </g>
      <g>
        <polygon class="cls-16" points="98.66 118.06 97.1 116.7 103.81 109.04 95.67 102.91 96.92 101.26 106.83 108.72 98.66 118.06"/>
        <path class="cls-6" d="M160.78,68.87c-5.25,18.51-10.5,37.02-15.75,55.53-.46,1.61-.98,3.32-2.29,4.36-2.96,2.34-7.14-.32-10.03-2.75-8.3-7-17.56-12.85-27.44-17.36"/>
      </g>
      <g>
        <polygon class="cls-14" points="131.94 359.5 130.88 358.39 136.35 353.16 130.73 348.08 131.76 346.94 138.6 353.12 131.94 359.5"/>
        <path class="cls-5" d="M177.94,339.46c-10.28,10.73-25.65,16.06-39.97,13.96"/>
      </g>
      <g>
        <polygon class="cls-16" points="15.39 283.9 14.31 282.81 19.7 277.46 13.98 272.47 15 271.31 21.96 277.39 15.39 283.9"/>
        <path class="cls-9" d="M11.68,297.7c1.28-8.11,4.47-14.49,10.23-20.02"/>
      </g>
      <g>
        <polygon class="cls-16" points="-2.52 299.05 -3.83 298.23 .21 291.8 -6.49 288.24 -5.77 286.88 2.4 291.22 -2.52 299.05"/>
        <path class="cls-9" d="M-12.78,301.23c4.38-3.88,9.29-7.16,14.54-9.74"/>
      </g>
      <g>
        <polygon class="cls-15" points="97.22 438.69 96.27 437.82 100.54 433.15 95.57 429.23 96.37 428.23 102.42 433 97.22 438.69"/>
        <path class="cls-1" d="M85.52,439.58c5.49-2.2,10.99-4.4,16.48-6.6"/>
      </g>
      <g>
        <polygon class="cls-15" points="80.63 426.07 79.76 425.13 84.39 420.82 79.75 416.51 80.62 415.57 86.27 420.81 80.63 426.07"/>
        <path class="cls-1" d="M83.11,427.74c.81-2.33,1.63-4.66,2.44-6.98"/>
      </g>
      <g>
        <polygon class="cls-15" points="63.95 428.74 63.06 427.81 67.62 423.43 62.92 419.2 63.78 418.24 69.51 423.4 63.95 428.74"/>
        <path class="cls-1" d="M72.27,431.4c-1.03-3.09-2.3-6.1-3.8-8.99"/>
      </g>
    </g>
    <g id="fleches3">
      <g>
        <polygon class="cls-15" points="26.49 87.35 25.14 85.85 32.54 79.19 25.36 72.29 26.77 70.83 35.51 79.24 26.49 87.35"/>
        <path class="cls-4" d="M-18.98,164.91c13.99-.33,27.97-.67,41.96-1C13.13,139.55,3.28,115.2-6.57,90.84c-.61-1.51-1.23-3.15-.84-4.74,.88-3.58,5.71-4.04,9.39-3.89,10.61,.42,21.27-.61,31.6-3.06"/>
      </g>
      <g>
        <polygon class="cls-14" points="119.85 81.62 118.3 79.95 126.56 72.32 118.35 64.64 119.91 62.97 129.91 72.33 119.85 81.62"/>
        <path class="cls-10" d="M212.21,72.97c-5.91-4.91-12.14-9.42-18.64-13.51-1.62-1.02-3.36-2.04-5.27-2.11-1.74-.06-3.41,.68-4.93,1.53-8.6,4.85-14.32,13.66-17.87,22.87-.46,1.18-1.07,2.55-2.31,2.81-.79,.17-1.59-.19-2.32-.56-3.82-1.91-7.44-4.22-10.78-6.88-3.39-2.69-6.78-5.86-11.07-6.42-3.88-.51-7.71,1.26-11.58,1.7"/>
      </g>
      <g>
        <polygon class="cls-15" points="26.49 285.67 25.69 284.8 29.97 280.86 25.73 276.88 26.54 276.02 31.7 280.87 26.49 285.67"/>
        <path class="cls-7" d="M21.48,302c.57-8.02,4.03-15.79,9.58-21.6"/>
      </g>
      <g>
        <polygon class="cls-15" points="6.78 299.87 6.03 298.96 10.51 295.25 6.49 291.05 7.34 290.24 12.24 295.36 6.78 299.87"/>
        <path class="cls-7" d="M9.61,309.16c-.05-4.48,.5-8.97,1.63-13.31"/>
      </g>
      <g>
        <polygon class="cls-14" points="126.74 368.83 125.84 367.91 130.41 363.52 125.7 359.29 126.56 358.33 132.29 363.48 126.74 368.83"/>
        <path class="cls-12" d="M163.7,387.38c-20.23-4.32-24.86-12.44-32.31-23.94"/>
      </g>
      <g>
        <polygon class="cls-15" points="17.81 418.36 16.91 417.54 20.98 413.11 16.27 409.38 17.03 408.42 22.76 412.97 17.81 418.36"/>
        <path class="cls-11" d="M12.18,413.32c3.09,.18,6.19,.11,9.27-.21"/>
      </g>
      <g>
        <polygon class="cls-15" points="13.64 433.23 12.88 432.28 17.55 428.5 13.44 424.12 14.33 423.28 19.33 428.63 13.64 433.23"/>
        <path class="cls-11" d="M13.42,424.38c1.77,1.53,3.54,3.07,5.31,4.6"/>
      </g>
      <g>
        <polygon class="cls-15" points="-1.01 445.5 -1.86 444.62 2.49 440.46 -1.98 436.44 -1.16 435.53 4.27 440.44 -1.01 445.5"/>
        <path class="cls-11" d="M3.32,424.15c.01,5.62,.03,11.24,.04,16.86"/>
      </g>
    </g>
    <g id="fleches4">
      <g>
        <polygon class="cls-15" points="26.49 87.35 25.14 85.85 32.54 79.19 25.36 72.29 26.77 70.83 35.51 79.24 26.49 87.35"/>
        <path class="cls-4" d="M-18.98,164.91c13.99-.33,27.97-.67,41.96-1C13.13,139.55,3.28,115.2-6.57,90.84c-.61-1.51-1.23-3.15-.84-4.74,.88-3.58,5.71-4.04,9.39-3.89,10.61,.42,21.27-.61,31.6-3.06"/>
      </g>
      <g>
        <polygon class="cls-14" points="119.85 81.62 118.3 79.95 126.56 72.32 118.35 64.64 119.91 62.97 129.91 72.33 119.85 81.62"/>
        <path class="cls-10" d="M212.21,72.97c-5.91-4.91-12.14-9.42-18.64-13.51-1.62-1.02-3.36-2.04-5.27-2.11-1.74-.06-3.41,.68-4.93,1.53-8.6,4.85-14.32,13.66-17.87,22.87-.46,1.18-1.07,2.55-2.31,2.81-.79,.17-1.59-.19-2.32-.56-3.82-1.91-7.44-4.22-10.78-6.88-3.39-2.69-6.78-5.86-11.07-6.42-3.88-.51-7.71,1.26-11.58,1.7"/>
      </g>
      <g>
        <polygon class="cls-15" points="26.49 285.67 25.69 284.8 29.97 280.86 25.73 276.88 26.54 276.02 31.7 280.87 26.49 285.67"/>
        <path class="cls-7" d="M21.48,302c.57-8.02,4.03-15.79,9.58-21.6"/>
      </g>
      <g>
        <polygon class="cls-15" points="6.78 299.87 6.03 298.96 10.51 295.25 6.49 291.05 7.34 290.24 12.24 295.36 6.78 299.87"/>
        <path class="cls-7" d="M9.61,309.16c-.05-4.48,.5-8.97,1.63-13.31"/>
      </g>
      <g>
        <polygon class="cls-14" points="126.74 368.83 125.84 367.91 130.41 363.52 125.7 359.29 126.56 358.33 132.29 363.48 126.74 368.83"/>
        <path class="cls-12" d="M163.7,387.38c-20.23-4.32-24.86-12.44-32.31-23.94"/>
      </g>
      <g>
        <polygon class="cls-15" points="17.81 418.36 16.91 417.54 20.98 413.11 16.27 409.38 17.03 408.42 22.76 412.97 17.81 418.36"/>
        <path class="cls-11" d="M12.18,413.32c3.09,.18,6.19,.11,9.27-.21"/>
      </g>
      <g>
        <polygon class="cls-15" points="13.64 433.23 12.88 432.28 17.55 428.5 13.44 424.12 14.33 423.28 19.33 428.63 13.64 433.23"/>
        <path class="cls-11" d="M13.42,424.38c1.77,1.53,3.54,3.07,5.31,4.6"/>
      </g>
      <g>
        <polygon class="cls-15" points="-1.01 445.5 -1.86 444.62 2.49 440.46 -1.98 436.44 -1.16 435.53 4.27 440.44 -1.01 445.5"/>
        <path class="cls-11" d="M3.32,424.15c.01,5.62,.03,11.24,.04,16.86"/>
      </g>
    </g>
  </g>
</svg>