<?xml version="1.0" encoding="UTF-8"?>
<svg id="vectos" xmlns="http://www.w3.org/2000/svg" width="160" height="600" xmlns:xlink="http://www.w3.org/1999/xlink" viewBox="0 0 160 600">
  <defs>
    <style>
      .cls-1 {
        fill: #fff;
      }

      .cls-2 {
        clip-path: url(#clippath-2);
      }

      .cls-3 {
        clip-path: url(#clippath-1);
      }

      .cls-4 {
        clip-path: url(#clippath);
      }

      .cls-5 {
        fill: none;
      }
    </style>
    <clipPath id="clippath">
      <circle class="cls-1" cx="41.43" cy="465.62" r="7.25"/>
    </clipPath>
    <clipPath id="clippath-1">
      <path class="cls-5" d="m41.43,465.62s3.65,3.4,5.26,4.98c-1.69,1.78-4.24,2.66-6.81,2.1-3.91-.85-6.39-4.72-5.53-8.63.85-3.91,4.72-6.39,8.63-5.53-.35,1.83-1.55,7.08-1.55,7.08Z"/>
    </clipPath>
    <clipPath id="clippath-2">
      <rect id="tomove" class="cls-5" x="41.44" y="458.59" width="7.54" height="15.44" transform="translate(100.49 1.09) rotate(12.31)"/>
    </clipPath>
  </defs>
  <g id="_160x600" data-name="160x600">
    <g id="claquos">
      <path class="cls-1" d="m41.47,476.49c-5.89,0-10.67-4.61-10.88-10.5-.18-4.93,2.94-9.26,7.47-10.74-.05-.15-.08-.31-.09-.48l-.02-.57c-.02-.45.14-.88.45-1.21.31-.33.72-.52,1.17-.53,0,0,2.86-.1,2.86-.1.97,0,1.7.71,1.73,1.62l.02.57c0,.17-.01.33-.06.49.74.19,1.45.45,2.13.78l.38-.41c.32-.34.76-.53,1.23-.53.43,0,.83.16,1.14.45l1.06.99c.68.63.72,1.69.09,2.37l-.15.16c1.43,1.81,2.26,4.03,2.34,6.37.22,6-4.49,11.06-10.5,11.28-.13,0-.27,0-.4,0Zm-.24-17.69c-1.81.06-3.49.83-4.73,2.16s-1.88,3.06-1.82,4.87c.13,3.67,3.11,6.55,6.79,6.55h.25c3.74-.14,6.68-3.29,6.55-7.04-.13-3.67-3.11-6.55-6.79-6.55h-.25Z"/>
      <circle class="cls-1" cx="41.48" cy="465.8" r="8.62"/>
      <g id="mask2">
        <circle class="cls-1" cx="41.43" cy="465.62" r="7.25"/>
        <g class="cls-4">
          <path d="m46.84,470.74l-5.41-5.12s-2.01,4.26-3.15,6.72c1.04.49,2.21.76,3.44.71,2.02-.07,3.83-.95,5.12-2.32Z"/>
        </g>
      </g>
      <g id="mask1">
        <g class="cls-3">
          <g class="cls-2">
            <circle cx="41.43" cy="465.62" r="7.25"/>
          </g>
        </g>
      </g>
      <path id="bordure" d="m48.45,458.89l.86-.93c.19-.21.18-.53-.03-.72l-1.06-.99c-.21-.19-.53-.18-.72.03l-.99,1.06s0,0,0,0c-1.28-.78-2.75-1.26-4.32-1.38l-.03-.77h.37c.28-.02.5-.26.49-.54l-.02-.57c-.01-.28-.25-.5-.53-.49l-2.87.1c-.28.01-.5.25-.49.53l.02.57c.01.28.25.5.53.49h.37s.03.75.03.75c-4.85.7-8.5,4.96-8.32,9.98.19,5.37,4.7,9.57,10.07,9.37,5.37-.19,9.57-4.7,9.37-10.07-.09-2.51-1.12-4.76-2.75-6.43Zm-6.69,14.74c-4.39.16-8.08-3.28-8.24-7.67-.16-4.39,3.28-8.08,7.67-8.24,4.39-.16,8.08,3.28,8.24,7.67s-3.28,8.08-7.67,8.24Z"/>
    </g>
  </g>
</svg>