<?xml version="1.0" encoding="UTF-8"?>
<svg id="vectos" xmlns="http://www.w3.org/2000/svg" width="970" height="250" xmlns:xlink="http://www.w3.org/1999/xlink" viewBox="0 0 970 250">
  <defs>
    <style>
      .cls-1 {
        fill: #fff;
      }

      .cls-2 {
        clip-path: url(#clippath-2);
      }

      .cls-3 {
        clip-path: url(#clippath-1);
      }

      .cls-4 {
        clip-path: url(#clippath);
      }

      .cls-5 {
        fill: none;
      }
    </style>
    <clipPath id="clippath">
      <circle class="cls-1" cx="404.43" cy="180.8" r="9.05"/>
    </clipPath>
    <clipPath id="clippath-1">
      <path class="cls-5" d="m404.43,180.8s4.56,4.24,6.57,6.22c-2.11,2.22-5.29,3.32-8.5,2.62-4.88-1.07-7.98-5.89-6.91-10.77,1.07-4.88,5.89-7.98,10.77-6.91-.44,2.28-1.93,8.84-1.93,8.84Z"/>
    </clipPath>
    <clipPath id="clippath-2">
      <rect id="tomove" class="cls-5" x="404.44" y="172.02" width="9.42" height="19.28" transform="translate(48.15 -83.08) rotate(12.31)"/>
    </clipPath>
  </defs>
  <g id="_970x250" data-name="970x250">
    <g id="claquos">
      <path class="cls-1" d="m404.48,194.38c-7.36,0-13.32-5.76-13.59-13.11-.22-6.15,3.67-11.56,9.33-13.41-.06-.19-.1-.39-.11-.6l-.03-.71c-.02-.56.18-1.09.56-1.5.38-.41.9-.64,1.46-.66,0,0,3.57-.13,3.58-.13,1.21,0,2.12.89,2.17,2.02l.03.71c0,.21-.02.42-.07.61.92.23,1.81.56,2.66.98l.47-.51c.4-.42.95-.67,1.53-.67.53,0,1.04.2,1.43.56l1.32,1.23c.84.78.89,2.11.11,2.96l-.18.2c1.79,2.26,2.82,5.04,2.92,7.95.27,7.5-5.61,13.81-13.11,14.08-.17,0-.33,0-.5,0Zm-.3-22.08c-2.26.08-4.36,1.04-5.9,2.7-1.55,1.66-2.35,3.82-2.27,6.08.16,4.59,3.89,8.18,8.47,8.18h.31c4.67-.17,8.34-4.11,8.17-8.79-.16-4.59-3.89-8.18-8.47-8.18h-.31Z"/>
      <circle class="cls-1" cx="404.49" cy="181.02" r="10.76"/>
      <g id="mask2">
        <circle class="cls-1" cx="404.43" cy="180.8" r="9.05"/>
        <g class="cls-4">
          <path d="m411.19,187.19l-6.76-6.4s-2.52,5.32-3.93,8.4c1.3.62,2.76.95,4.3.89,2.53-.09,4.78-1.19,6.39-2.89Z"/>
        </g>
      </g>
      <g id="mask1">
        <g class="cls-3">
          <g class="cls-2">
            <circle cx="404.43" cy="180.8" r="9.05"/>
          </g>
        </g>
      </g>
      <path id="bordure" d="m413.19,172.4l1.08-1.16c.24-.26.23-.66-.03-.9l-1.33-1.23c-.26-.24-.66-.23-.9.03l-1.23,1.33s0,0,0,0c-1.6-.97-3.43-1.58-5.39-1.72l-.03-.96.46-.02c.35-.01.63-.31.62-.66l-.03-.71c-.01-.35-.31-.63-.66-.62l-3.58.13c-.35.01-.63.31-.62.66l.03.71c.01.35.31.63.66.62l.46-.02.03.96c-6.06.88-10.61,6.2-10.38,12.45.24,6.7,5.87,11.94,12.58,11.7,6.7-.24,11.94-5.87,11.7-12.58-.11-3.13-1.4-5.95-3.43-8.03Zm-8.35,18.4c-5.48.2-10.09-4.1-10.29-9.58-.2-5.48,4.1-10.09,9.58-10.29,5.48-.2,10.09,4.1,10.29,9.58.2,5.48-4.1,10.09-9.58,10.29Z"/>
    </g>
  </g>
</svg>