<?xml version="1.0" encoding="UTF-8"?>
<svg id="vectos" xmlns="http://www.w3.org/2000/svg" width="627.91" height="615.33" viewBox="0 0 627.91 615.33">
  <defs>
    <style>
      .cls-1 {
        fill: #40ff34;
      }

      .cls-2 {
        fill: #654cff;
      }

      .cls-3 {
        stroke: #fffc36;
      }

      .cls-3, .cls-4 {
        stroke-miterlimit: 10;
        stroke-width: 4.9px;
      }

      .cls-3, .cls-4, .cls-5 {
        fill: none;
      }

      .cls-6 {
        fill: #b2b2b2;
      }

      .cls-7 {
        fill: #232323;
      }

      .cls-4 {
        stroke: #ff005d;
      }
    </style>
  </defs>
  <g id="_300x600" data-name="300x600">
    <g id="squares">
      <rect class="cls-6" width="156.84" height="156.84"/>
      <rect class="cls-7" x="156.84" width="156.84" height="156.84"/>
      <rect class="cls-6" x="314.23" width="156.84" height="156.84"/>
      <rect class="cls-7" x="471.07" width="156.84" height="156.84"/>
      <rect class="cls-7" y="149.22" width="156.84" height="156.84"/>
      <rect class="cls-6" x="156.84" y="149.22" width="156.84" height="156.84"/>
      <rect class="cls-7" x="314.23" y="149.22" width="156.84" height="156.84"/>
      <rect class="cls-6" x="471.07" y="149.22" width="156.84" height="156.84"/>
      <rect class="cls-6" y="301.87" width="156.84" height="156.84"/>
      <rect class="cls-7" x="156.84" y="301.87" width="156.84" height="156.84"/>
      <rect class="cls-6" x="314.23" y="301.87" width="156.84" height="156.84"/>
      <rect class="cls-7" x="471.07" y="301.87" width="156.84" height="156.84"/>
      <rect class="cls-7" y="458.48" width="156.84" height="156.84"/>
      <rect class="cls-6" x="156.84" y="458.48" width="156.84" height="156.84"/>
      <rect class="cls-7" x="314.23" y="458.48" width="156.84" height="156.84"/>
      <rect class="cls-6" x="471.07" y="458.48" width="156.84" height="156.84"/>
    </g>
    <g id="lines2">
      <line class="cls-4" x1="230.37" y1="403.33" x2="309.16" y2="388.76"/>
      <line class="cls-4" x1="125.94" y1="341.68" x2="204.72" y2="327.11"/>
      <line class="cls-4" x1="349.54" y1="300.34" x2="428.32" y2="285.77"/>
      <line class="cls-4" x1="142.12" y1="300" x2="220.91" y2="285.43"/>
      <line class="cls-4" x1="119.72" y1="240.78" x2="198.5" y2="226.21"/>
      <line class="cls-4" x1="131.55" y1="198.57" x2="210.34" y2="184.01"/>
      <line class="cls-4" x1="315.21" y1="427.46" x2="393.99" y2="412.89"/>
      <line class="cls-4" x1="287.99" y1="347.65" x2="366.78" y2="333.08"/>
      <line class="cls-4" x1="301.91" y1="253.72" x2="380.69" y2="239.15"/>
      <line class="cls-4" x1="205.08" y1="211.65" x2="283.86" y2="197.09"/>
      <line class="cls-4" x1="190.17" y1="260.88" x2="268.95" y2="246.31"/>
      <line class="cls-4" x1="237.39" y1="315.83" x2="316.18" y2="301.26"/>
      <line class="cls-4" x1="375.21" y1="484.15" x2="454" y2="469.59"/>
      <line class="cls-4" x1="364.72" y1="370.81" x2="443.51" y2="356.24"/>
    </g>
    <g id="lines1">
      <line class="cls-3" x1="169.57" y1="334.53" x2="222.4" y2="394.77"/>
      <line class="cls-3" x1="196.76" y1="273.03" x2="249.59" y2="333.26"/>
      <line class="cls-3" x1="240.85" y1="265.6" x2="293.67" y2="325.84"/>
      <line class="cls-3" x1="280.27" y1="216.06" x2="333.09" y2="276.29"/>
      <line class="cls-3" x1="322.58" y1="204.62" x2="375.41" y2="264.86"/>
      <line class="cls-3" x1="247.32" y1="366.49" x2="300.15" y2="426.73"/>
      <line class="cls-3" x1="275.43" y1="341.84" x2="328.26" y2="402.08"/>
      <line class="cls-3" x1="333.99" y1="301.19" x2="386.81" y2="361.42"/>
      <line class="cls-3" x1="399.75" y1="225.97" x2="452.57" y2="286.2"/>
      <line class="cls-3" x1="392.72" y1="279.63" x2="445.55" y2="339.87"/>
      <line class="cls-3" x1="352.08" y1="368.56" x2="404.9" y2="428.8"/>
      <line class="cls-3" x1="277.96" y1="449.18" x2="330.79" y2="509.41"/>
      <line class="cls-3" x1="403.33" y1="328.53" x2="456.16" y2="388.77"/>
    </g>
    <g id="lorem2">
      <path class="cls-2" d="M188.32,55.8h6.45v17.61h11.27v5.65h-17.72v-23.26Z"/>
      <path class="cls-2" d="M206.67,67.5v-.07c.05-6.73,5.55-12.15,12.28-12.1,.09,0,.18,0,.28,0,7.18,0,12.49,5.35,12.49,12v.07c-.04,6.73-5.52,12.16-12.25,12.13-.1,0-.2,0-.31,0-7.18,0-12.49-5.35-12.49-12.03Zm18.47,0v-.07c.15-3.31-2.4-6.12-5.71-6.27-.1,0-.19,0-.29,0-3.27,.04-5.9,2.72-5.87,5.99,0,.07,0,.13,0,.2v.07c-.15,3.31,2.4,6.12,5.71,6.27,.1,0,.19,0,.29,0,3.27-.02,5.91-2.7,5.89-5.97,0-.07,0-.14,0-.22h-.02Z"/>
      <path class="cls-2" d="M235.08,55.8h11c3.56,0,6,.93,7.58,2.52,1.41,1.44,2.16,3.41,2.06,5.42v.07c.1,3.16-1.82,6.04-4.79,7.14l5.55,8.11h-7.44l-4.69-7h-2.82v7h-6.45v-23.26Zm10.7,11.16c2.19,0,3.46-1.06,3.46-2.75v-.07c0-1.8-1.33-2.8-3.49-2.8h-4.22v5.58l4.25,.04Z"/>
      <path class="cls-2" d="M258.97,55.8h18.71v5.48h-12.33v3.52h11.17v5.09h-11.17v3.69h12.5v5.48h-18.88v-23.26Z"/>
      <path class="cls-2" d="M281.16,55.8h6.81l5.55,9,5.55-9h6.81v23.26h-6.41v-13.36l-5.95,9.11h-.13l-5.92-9v13.25h-6.31v-23.26Z"/>
      <path class="cls-2" d="M319.32,55.8h6.48v23.26h-6.48v-23.26Z"/>
      <path class="cls-2" d="M330.05,55.8h10c5.88,0,9.67,3,9.67,8.17v.07c0,5.48-4.22,8.37-10,8.37h-3.19v6.65h-6.45l-.03-23.26Zm9.51,11.54c2.29,0,3.68-1.19,3.68-3v-.07c0-2-1.39-3.06-3.72-3.06h-3v6.13h3.04Z"/>
      <path class="cls-2" d="M350.65,75.6l3.59-4.26c2.12,1.77,4.79,2.76,7.55,2.79,1.73,0,2.66-.6,2.66-1.6v-.06c0-1-.77-1.5-3.92-2.23-5-1.13-8.78-2.52-8.78-7.31v-.09c0-4.32,3.42-7.44,9-7.44,3.45-.13,6.84,.96,9.57,3.09l-3.16,4.55c-1.89-1.4-4.17-2.2-6.52-2.29-1.56,0-2.33,.66-2.33,1.49v.1c0,1.06,.8,1.53,4,2.26,5.35,1.16,8.67,2.89,8.67,7.25v.06c0,4.75-3.76,7.58-9.4,7.58-4,.09-7.89-1.29-10.93-3.89Z"/>
      <path class="cls-2" d="M373.78,68.86v-13.06h6.55v12.93c0,3.35,1.69,5,4.29,5s4.28-1.53,4.28-4.79v-13.14h6.55v12.89c0,7.51-4.29,10.8-10.9,10.8s-10.77-3.35-10.77-10.63Z"/>
      <path class="cls-2" d="M399.27,55.8h6.81l5.55,9,5.55-9h6.82v23.26h-6.42v-13.36l-6,9.11h-.13l-5.91-9v13.25h-6.32l.05-23.26Z"/>
    </g>
    <g id="lorem1">
      <path class="cls-1" d="M187.16,53.8h6.4v17.61h11.27v5.65h-17.67v-23.26Z"/>
      <path class="cls-1" d="M205.46,65.49v-.06c.05-6.73,5.55-12.15,12.28-12.1,.09,0,.18,0,.28,0,7.18,0,12.5,5.35,12.5,12v.07c-.04,6.73-5.52,12.15-12.24,12.12-.11,0-.21,0-.32,0-7.18,0-12.5-5.35-12.5-12.03Zm18.48,0v-.06c.15-3.31-2.4-6.12-5.71-6.27-.1,0-.19,0-.29,0-3.27,.02-5.9,2.69-5.88,5.96,0,.08,0,.15,0,.23v.07c-.15,3.31,2.4,6.12,5.71,6.27,.1,0,.19,0,.29,0,3.28-.04,5.91-2.72,5.88-6,0-.07,0-.13,0-.2Z"/>
      <path class="cls-1" d="M233.87,53.8h11c3.56,0,6,.93,7.58,2.52,1.41,1.44,2.16,3.4,2.06,5.42v.06c.11,3.17-1.82,6.05-4.79,7.15l5.55,8.11h-7.44l-4.69-7h-2.82v7h-6.45v-23.26Zm10.7,11.16c2.2,0,3.46-1.06,3.46-2.76v-.06c0-1.8-1.33-2.8-3.49-2.8h-4.22v5.58l4.25,.04Z"/>
      <path class="cls-1" d="M257.76,53.8h18.71v5.48h-12.31v3.52h11.16v5.09h-11.16v3.69h12.49v5.48h-18.89v-23.26Z"/>
      <path class="cls-1" d="M279.93,53.8h6.81l5.55,9,5.55-9h6.82v23.26h-6.42v-13.36l-6,9.1h-.08l-5.92-9v13.26h-6.31v-23.26Z"/>
      <path class="cls-1" d="M318.16,53.8h6.48v23.26h-6.48v-23.26Z"/>
      <path class="cls-1" d="M328.84,53.8h10c5.89,0,9.68,3,9.68,8.17v.07c0,5.48-4.23,8.37-10,8.37h-3.19v6.65h-6.45l-.04-23.26Zm9.51,11.54c2.29,0,3.69-1.2,3.69-3v-.07c0-2-1.4-3.06-3.72-3.06h-3v6.13h3.03Z"/>
      <path class="cls-1" d="M349.45,73.6l3.59-4.26c2.12,1.77,4.78,2.75,7.54,2.79,1.73,0,2.66-.6,2.66-1.6v-.06c0-1-.76-1.5-3.92-2.23-4.95-1.13-8.78-2.53-8.78-7.31v-.09c0-4.32,3.43-7.44,9-7.44,3.47-.15,6.88,.95,9.62,3.09l-3.22,4.55c-1.89-1.41-4.16-2.2-6.52-2.29-1.56,0-2.32,.66-2.32,1.49v.1c0,1.06,.8,1.53,4,2.26,5.35,1.16,8.67,2.89,8.67,7.24v.07c0,4.75-3.75,7.58-9.4,7.58-3.99,.09-7.88-1.29-10.92-3.89Z"/>
      <path class="cls-1" d="M372.58,66.86v-13.06h6.58v12.92c0,3.36,1.7,4.95,4.29,4.95s4.29-1.52,4.29-4.78v-13.09h6.54v12.89c0,7.51-4.28,10.8-10.9,10.8s-10.8-3.36-10.8-10.63Z"/>
      <path class="cls-1" d="M398.06,53.8h6.82l5.55,9,5.55-9h6.81v23.26h-6.41v-13.36l-6,9.1h-.14l-5.91-9v13.26h-6.27v-23.26Z"/>
    </g>
    <rect class="cls-5" x="156.16" y="4.34" width="300" height="600"/>
  </g>
</svg>