<?xml version="1.0" encoding="UTF-8"?>
<svg id="fleches" xmlns="http://www.w3.org/2000/svg" width="970" height="250" viewBox="0 0 970 250">
  <defs>
    <style>
      .cls-1 {
        stroke-width: 2.16px;
      }

      .cls-1, .cls-2, .cls-3, .cls-4, .cls-5, .cls-6, .cls-7, .cls-8, .cls-9, .cls-10, .cls-11, .cls-12, .cls-13, .cls-14, .cls-15 {
        fill: none;
        stroke-miterlimit: 10;
      }

      .cls-1, .cls-4, .cls-12, .cls-14, .cls-15 {
        stroke: #fff;
      }

      .cls-2 {
        stroke-width: 3.83px;
      }

      .cls-2, .cls-3, .cls-5, .cls-6, .cls-7, .cls-8, .cls-9, .cls-10, .cls-11, .cls-13 {
        stroke: #fbcd00;
      }

      .cls-3 {
        stroke-width: 1.67px;
      }

      .cls-16 {
        fill: #fff;
      }

      .cls-4 {
        stroke-width: 1.36px;
      }

      .cls-5 {
        stroke-width: 2.34px;
      }

      .cls-6 {
        stroke-width: 2.63px;
      }

      .cls-7 {
        stroke-width: 1.89px;
      }

      .cls-8 {
        stroke-width: 1.91px;
      }

      .cls-9 {
        stroke-width: 2.44px;
      }

      .cls-10 {
        stroke-width: 3.42px;
      }

      .cls-11 {
        stroke-width: 1.92px;
      }

      .cls-12 {
        stroke-width: 2.54px;
      }

      .cls-13 {
        stroke-width: 1.81px;
      }

      .cls-17 {
        fill: #fbcd00;
      }

      .cls-14 {
        stroke-width: 2.15px;
      }

      .cls-15 {
        stroke-width: 2.13px;
      }
    </style>
  </defs>
  <g id="_00x600" data-name="300x600">
    <g id="fleches1">
      <g>
        <polygon class="cls-17" points="258.78 146.03 255.72 149.15 271.11 164.22 254.95 178.48 257.85 181.75 277.53 164.39 258.78 146.03"/>
        <path class="cls-2" d="M-11.06,229.57c31.68,25.96,76.99,34.21,115.79,21.08,38.8-13.13,69.79-47.19,79.2-87.05,2.75-11.65,3.73-24.05,.21-35.49-3.52-11.44-12.15-21.77-23.68-25.01-14.37-4.03-30.08,3.84-39.1,15.74-17.35,22.88-12.04,58.3,8.51,78.36,20.55,20.05,52.77,25.31,80.35,17.3,26.06-7.56,48.12-25.57,64.62-47.2"/>
      </g>
      <g>
        <polygon class="cls-17" points="670.22 121.91 667.54 119.08 681.53 105.89 667.35 92.9 669.98 90.02 687.25 105.84 670.22 121.91"/>
        <path class="cls-10" d="M953.5-17.04c-15.29,29.99-34.51,57.97-57.01,83-2.28,2.54-4.82,5.18-8.15,5.89-5.4,1.15-10.31-3.08-14.21-6.98-19.1-19.1-38.2-38.2-57.3-57.3-20.92,46.21-41.84,92.42-62.75,138.63-1.3,2.87-2.76,5.93-5.5,7.49-6.18,3.54-13.24-2.6-17.95-7.94-13.54-15.38-29.19-28.91-46.37-40.08"/>
      </g>
      <g>
        <polygon class="cls-16" points="275.59 93.42 274.02 91.52 283.37 83.77 274.96 75.01 276.74 73.3 286.98 83.98 275.59 93.42"/>
        <path class="cls-1" d="M114.24-14.9c2.38-1.43,4.96-2.9,7.73-2.72,3.76,.25,6.58,3.42,8.85,6.42,8.55,11.34,15.48,23.89,20.53,37.16,2.19,5.76,4.15,11.86,8.46,16.27,5.12,5.25,12.81,7.23,20.15,7.37,17.58,.34,34.62-8.87,45.68-22.54,1.28-1.58,2.77-3.38,4.81-3.43,1.36-.04,2.6,.75,3.7,1.57,11.12,8.34,15.93,22.39,22.37,34.71,6.02,11.52,15.95,23.09,28.57,24.04"/>
      </g>
      <g>
        <polygon class="cls-16" points="604.33 181.99 603.3 180.83 609.01 175.73 603.5 170.4 604.58 169.29 611.29 175.77 604.33 181.99"/>
        <path class="cls-4" d="M762.26,321.05c-13.85-13-24.99-28.89-32.49-46.35-3.91-9.1-6.87-18.86-6.4-28.75,.14-2.89,.69-6,2.82-7.96,1.63-1.49,3.89-2.04,6.05-2.49,9.07-1.89,20.4-2.2,25.49,5.54,4.21,6.41,1.61,15.28-3.19,21.26-8.21,10.22-21.97,15.03-35.06,14.32-13.09-.71-25.52-6.39-36.17-14.04-8.54-6.13-16.24-13.71-21.23-22.96-5.29-9.81-7.34-21.35-5.74-32.38,1.25-8.6,5.17-17.44,12.76-21.67,7.59-4.23,19.09-1.57,21.83,6.67,.46,1.4,.67,2.91,.37,4.35-.91,4.45-5.86,6.6-10.16,8.06-10.78,3.64-22.58,7.29-33.26,3.37-4.78-1.75-8.9-4.9-12.83-8.14-9.04-7.46-17.47-15.65-25.18-24.48"/>
      </g>
      <g>
        <polygon class="cls-17" points="370.91 214.56 369.31 213.07 376.66 205.22 368.29 198.46 369.66 196.77 379.85 204.99 370.91 214.56"/>
        <path class="cls-8" d="M352.42,236.9c3.78-12.97,13.32-24.13,25.49-29.97"/>
      </g>
      <g>
        <polygon class="cls-17" points="330.79 228.83 329.51 227.42 336.45 221.12 329.66 214.66 330.97 213.29 339.24 221.16 330.79 228.83"/>
        <path class="cls-3" d="M328.22,242.65c2.26-7.45,5.55-14.59,9.74-21.15"/>
      </g>
      <g>
        <polygon class="cls-16" points="487.01 239.94 485.11 237.75 495.93 228.42 485.84 218.31 487.89 216.26 500.18 228.58 487.01 239.94"/>
        <path class="cls-12" d="M470.21,306.04c20.78-18.82,31.63-47.53,28.42-74.64"/>
      </g>
    </g>
    <g id="fleches2">
      <g>
        <polygon class="cls-17" points="634.67 108.99 632.82 107.06 642.32 97.99 632.57 89.17 634.36 87.2 646.23 97.93 634.67 108.99"/>
        <path class="cls-5" d="M680.8-8.76c5.04,24.3,16.49,76.29,21.53,100.59,.44,2.11,.86,4.38-.02,6.35-1.99,4.44-8.36,3.89-13.11,2.83-13.67-3.05-27.76-4.22-41.75-3.48"/>
      </g>
      <g>
        <polygon class="cls-17" points="319.79 203.68 317.93 201.32 329.57 192.2 319.61 181.26 321.83 179.24 333.96 192.56 319.79 203.68"/>
        <path class="cls-6" d="M153.78,283.55c25.56,11.7,57.08,9.26,80.54-6.23,23.46-15.49,38.09-43.51,37.37-71.62-.21-8.22-1.72-16.62-6.06-23.6-4.34-6.98-11.87-12.33-20.09-12.47-10.25-.17-19.3,7.8-23.21,17.27-7.52,18.22,2.19,40.81,19.33,50.53,17.15,9.72,39.45,7.58,56.36-2.55,15.98-9.57,27.47-25.38,34.65-42.61"/>
      </g>
      <g>
        <polygon class="cls-16" points="650.01 203.78 647.99 201.7 658.23 191.74 647.54 182.25 649.47 180.09 662.48 191.64 650.01 203.78"/>
        <path class="cls-12" d="M715.41,301.44c9.84-5.67,15.84-17.03,17.01-28.62,1.16-11.59-2.05-23.32-7.24-33.71-12.54-25.07-37.27-43.25-64.25-47.45"/>
      </g>
      <g>
        <polygon class="cls-17" points="97.23 112.24 95.91 110.53 104.33 104.02 97.22 96.09 98.83 94.64 107.49 104.3 97.23 112.24"/>
        <path class="cls-7" d="M113.63,146.34c-7.14-12.87-9.62-28.25-6.92-42.72"/>
      </g>
      <g>
        <polygon class="cls-17" points="82.78 158.68 81.42 157 89.68 150.28 82.37 142.53 83.95 141.05 92.85 150.49 82.78 158.68"/>
        <path class="cls-7" d="M102.94,169.74c-4.85-6.62-8.81-13.9-11.74-21.56"/>
      </g>
      <g>
        <polygon class="cls-16" points="426.31 84.64 424.6 82.91 433.13 74.5 424.11 66.61 425.71 64.78 436.69 74.39 426.31 84.64"/>
        <path class="cls-15" d="M323.53-17.88c.47,6.06,.63,12.38,3.48,17.75,3.39,6.4,10.11,10.4,17.02,12.58,16.54,5.21,35.23,1.23,49.49-8.63,1.65-1.14,3.56-2.42,5.5-1.91,1.3,.35,2.26,1.43,3.06,2.51,8.21,10.99,8.84,25.62,11.51,39.07,2.5,12.58,8.68,26.29,20.36,30.69"/>
      </g>
    </g>
    <g id="fleches3">
      <g>
        <polygon class="cls-17" points="533.38 69.63 531.99 68.11 539.48 61.25 532.09 54.27 533.51 52.77 542.51 61.27 533.38 69.63"/>
        <path class="cls-13" d="M445.57-38.65c-2.67,19.14,5.14,39.41,19.95,51.81,14.82,12.4,36.15,16.51,54.51,10.51,5.37-1.75,10.6-4.41,14.35-8.63,3.74-4.23,5.78-10.24,4.25-15.68-1.91-6.78-8.94-11.17-15.94-11.88-13.48-1.37-26.44,9.47-29.47,22.68-3.03,13.2,2.77,27.47,12.77,36.61,9.45,8.64,22.12,13.09,34.88,14.43"/>
      </g>
      <g>
        <polygon class="cls-17" points="714 65.96 712.33 64.08 721.6 55.86 712.73 47.21 714.49 45.41 725.29 55.95 714 65.96"/>
        <path class="cls-9" d="M684.6-53.9c27.17,23.85,54.35,47.69,81.52,71.54,1.69,1.48,3.47,3.11,3.97,5.3,1.13,4.95-4.52,8.49-9.14,10.59-13.3,6.05-25.77,13.91-36.95,23.31"/>
      </g>
      <g>
        <polygon class="cls-16" points="517.57 157.92 515.87 156.15 524.61 147.79 515.63 139.69 517.28 137.87 528.21 147.74 517.57 157.92"/>
        <path class="cls-14" d="M531.86,258.24c-5.88-16.48-20.46-29.1-37.08-34.58-1.92-.63-4.12-1.39-4.89-3.27-.51-1.26-.22-2.69,.16-3.99,3.85-13.29,15.23-22.72,24.43-33.05,8.6-9.67,15.87-22.99,12.31-35.07"/>
      </g>
      <g>
        <polygon class="cls-17" points="330.75 103.9 329.28 102.27 337.32 95.08 329.56 87.59 331.09 86.02 340.53 95.14 330.75 103.9"/>
        <path class="cls-11" d="M371.31,66.27c-7.1,13.1-18.89,23.57-32.7,29.14"/>
      </g>
      <g>
        <polygon class="cls-17" points="374.04 93.88 372.59 92.25 380.63 85.07 372.88 77.58 374.4 76.01 383.84 85.14 374.04 93.88"/>
        <path class="cls-11" d="M395.25,64.38c-3.34,7.61-7.7,14.76-12.93,21.22"/>
      </g>
    </g>
    <g id="fleches4">
      <g>
        <polygon class="cls-17" points="533.38 69.63 531.99 68.11 539.48 61.25 532.09 54.27 533.51 52.77 542.51 61.27 533.38 69.63"/>
        <path class="cls-13" d="M445.57-38.65c-2.67,19.14,5.14,39.41,19.95,51.81,14.82,12.4,36.15,16.51,54.51,10.51,5.37-1.75,10.6-4.41,14.35-8.63,3.74-4.23,5.78-10.24,4.25-15.68-1.91-6.78-8.94-11.17-15.94-11.88-13.48-1.37-26.44,9.47-29.47,22.68-3.03,13.2,2.77,27.47,12.77,36.61,9.45,8.64,22.12,13.09,34.88,14.43"/>
      </g>
      <g>
        <polygon class="cls-17" points="714.21 66.29 712.54 64.41 721.79 56.17 712.88 47.54 714.63 45.74 725.48 56.24 714.21 66.29"/>
        <path class="cls-9" d="M684.6-53.9c27.17,23.85,54.35,47.69,81.52,71.54,1.69,1.48,3.47,3.11,3.97,5.3,1.13,4.95-4.52,8.49-9.14,10.59-13.3,6.05-25.77,13.91-36.95,23.31"/>
      </g>
      <g>
        <polygon class="cls-16" points="517.57 157.92 515.87 156.15 524.61 147.79 515.63 139.69 517.28 137.87 528.21 147.74 517.57 157.92"/>
        <path class="cls-14" d="M531.86,258.24c-5.88-16.48-20.46-29.1-37.08-34.58-1.92-.63-4.12-1.39-4.89-3.27-.51-1.26-.22-2.69,.16-3.99,3.85-13.29,15.23-22.72,24.43-33.05,8.6-9.67,15.87-22.99,12.31-35.07"/>
      </g>
      <g>
        <polygon class="cls-17" points="330.75 103.9 329.28 102.27 337.32 95.08 329.56 87.59 331.09 86.02 340.53 95.14 330.75 103.9"/>
        <path class="cls-11" d="M371.31,66.27c-7.1,13.1-18.89,23.57-32.7,29.14"/>
      </g>
      <g>
        <polygon class="cls-17" points="374.04 93.88 372.59 92.25 380.63 85.07 372.88 77.58 374.4 76.01 383.84 85.14 374.04 93.88"/>
        <path class="cls-11" d="M395.25,64.38c-3.34,7.61-7.7,14.76-12.93,21.22"/>
      </g>
    </g>
  </g>
</svg>